<?xml version="1.0" standalone="no"?>
<!DOCTYPE svg PUBLIC "-//W3C//DTD SVG 1.1//EN" "http://www.w3.org/Graphics/SVG/1.1/DTD/svg11.dtd" >
<svg xmlns="http://www.w3.org/2000/svg">
<metadata>Generated by IcoMoon</metadata>
<defs>
<font id="tsr-icons-all" horiz-adv-x="512">
<font-face units-per-em="512" ascent="480" descent="-32" />
<missing-glyph horiz-adv-x="512" />
<glyph unicode="&#x20;" d="" horiz-adv-x="256" />
<glyph unicode="&#xe001;" d="M1.631 106.2c0 0 117.445-120.984 257.074 3.389-76.54 6.122-42.661 60.705-25.974 62.988-64.643-0.353-81.333 47.468-81.333 47.468s20.404 20.651 44.521 20.025c-65.875 12.272-74.836 73.641-74.836 73.641s20.402 9.047 39.277 6.79c-60.931 35.836-56.29 90.442-56.29 90.442s193.007-67.844 235.369-125.653c62.487 172.468 108.561 179.256 111.647 177.31 3.087-1.932-8.031-19.374-8.031-19.374s38.698 34.806 52.248 23.915c8.055-6.476-22.259-23.601-22.259-23.601s44.744 25.698 55.687 6.134c6.475-11.606-56.915-29.072-56.915-29.072s113.504 7.141 147.835-140.821c57.845-6.438 82.285 9.399 82.285 9.399s-7.126-39.436-72.7-48.798c29.262-13.364 75.763-8.065 75.763-8.065s-14.529-28.759-82.864-34.543c-50.516-243.248-450.033-347.080-622.135-94.234 0.801 1.381 1.631 2.66 1.631 2.66z" horiz-adv-x="705" />
<glyph unicode="&#xe002;" d="M152.472-42.667h-102.083v256.020h-51.023v88.237h51.024l-0.001 52.963c0 71.984 28.805 114.78 110.624 114.78h68.13v-88.223h-42.569c-31.856 0-33.976-12.342-33.976-35.359l-0.126-44.16h77.162l-9.030-88.237h-68.132v-256.021z" horiz-adv-x="229" />
<glyph unicode="&#xe005;" d="M573.658 398.576c10.543 14.126 7.64 34.128-6.485 44.669l-25.581 19.094c-14.125 10.543-34.127 7.639-44.669-6.487l-280.929-376.605-145.888 108.808c-14.126 10.545-34.128 7.641-44.671-6.486l-19.094-25.579c-10.543-14.127-7.639-34.127 6.486-44.67l197.047-146.993c14.126-10.543 34.127-7.639 44.669 6.485l319.115 427.764z" horiz-adv-x="580" />
<glyph unicode="&#xe016;" d="M79.158 468.586c-43.652 0-79.158-35.515-79.158-79.175v-230.805c0-43.662 35.506-79.185 79.158-79.185h35.764c14.557 0 26.38-11.797 26.38-26.389v-94.952l124.975 114.422c4.864 4.442 11.205 6.916 17.804 6.916h186.758c43.653 0 79.158 35.523 79.158 79.185l0.001 230.808c0.002 43.66-35.505 79.175-79.157 79.175h-391.683z" horiz-adv-x="550" />
<glyph unicode="&#xe02c;" d="M452.912 439.466c-18.722 15.983-46.452 25.313-79.214 28.564-71.986 7.029-167.965-14.735-244.683-57.228-25.62-14.179-48.973-30.783-68.648-49.281 11.49-3.222 23.096-6.337 34.901-9.102 153.026-27.701 281.737-5.098 357.644 87.047zM360.767 263.96c-92.898 34.488-233.389 52.56-323.737 72.747-14.97-18.655-26.218-38.866-32.278-60.464-4.105-14.543-5.916-29.612-5.046-45.296 0.628-12.311 5.402-29.69 13.473-49.721 40.604-64.007 223.337-1.119 347.588 82.734zM489.153 357.587c-11.32-25.335-34.502-54.854-65.27-84.552 24.494-11.448 43.728-25.477 55.662-43.52 4.518 18.27 7.812 36.513 9.836 54.242 2.879 26.054 2.864 50.94-0.228 73.83zM204.482 326.001c68.862-12.133 135.142-22.734 186.812-40.078 50.282 38.631 85.454 79.627 87.652 113.509-0.884 2.303-1.654 4.62-2.594 6.75-2.312 5.354-4.906 10.402-7.786 15.185-2.152 3.614-4.69 7.007-7.442 10.18-64.115-81.117-157.343-107.685-256.642-105.546zM117.469 24.305c4.405-4.419 8.754-8.91 13.303-13.024 22.469-20.252 46.692-36.483 71.456-45.545 24.365-8.946 49.317-10.984 74.082-3.35 28.684 8.86 55.602 25.67 80.108 47.853 5.704 5.177 11.080 10.793 16.484 16.311 23.852 25.164 44.968 55.354 62.476 88.073-57.26-69.367-210.024-136.539-317.909-90.318zM396.724 248.448c-98.959-84.28-249.371-160.584-348.944-134.708 1.739-2.808 3.466-5.645 5.304-8.439l0.186-0.271c97.874-157.385 369.73-36.983 400.81 62.916 7.129 33.898-16.709 59.801-57.356 80.502z" horiz-adv-x="491" />
<glyph unicode="&#xe600;" d="M478.166-8.832c-16.661-16.661-43.68-16.661-60.33 0l-65.525 65.526c-35.552-23.574-76.597-35.36-117.654-35.36-54.602 0-109.195 20.832-150.858 62.486-83.285 83.328-83.285 218.379 0 301.685 41.664 41.664 96.256 62.496 150.858 62.496 54.592 0 109.195-20.832 150.87-62.486 72.971-72.982 82.005-185.654 27.125-268.49l65.525-65.525c16.661-16.651 16.661-43.68-0.010-60.331zM234.656 394.667c-42.742 0-82.923-16.65-113.141-46.88-62.358-62.379-62.358-163.872 0-226.262 30.218-30.208 70.4-46.858 113.141-46.858s82.923 16.651 113.152 46.88c62.368 62.378 62.368 163.872-0.010 226.262-30.219 30.208-70.4 46.858-113.142 46.858zM148.576 208.011h172.17c14.731 0 26.666 11.936 26.666 26.667s-11.936 26.667-26.666 26.667h-172.171c-14.731 0-26.666-11.936-26.666-26.667s11.936-26.667 26.666-26.667z" />
<glyph unicode="&#xe601;" d="M478.166-8.832c-16.661-16.661-43.68-16.661-60.33 0l-65.525 65.526c-35.552-23.574-76.597-35.36-117.654-35.36-54.602 0-109.195 20.832-150.858 62.486-83.285 83.328-83.285 218.379 0 301.685 41.664 41.664 96.256 62.496 150.858 62.496 54.592 0 109.195-20.832 150.87-62.486 72.971-72.982 82.005-185.654 27.125-268.49l65.525-65.525c16.661-16.651 16.661-43.68-0.010-60.331zM234.656 394.667c-42.742 0-82.923-16.65-113.141-46.88-62.358-62.379-62.358-163.872 0-226.262 30.218-30.208 70.4-46.858 113.141-46.858s82.923 16.651 113.152 46.88c62.368 62.378 62.368 163.872-0.010 226.262-30.219 30.208-70.4 46.858-113.142 46.858zM320.747 261.344h-59.424v59.413c0 14.731-11.936 26.666-26.666 26.666s-26.666-11.936-26.666-26.666v-59.413h-59.413c-14.731 0-26.666-11.936-26.666-26.667s11.936-26.667 26.666-26.667h59.413v-59.424c0-14.731 11.936-26.666 26.666-26.666s26.666 11.936 26.666 26.666v59.424h59.424c14.731 0 26.666 11.936 26.666 26.667s-11.936 26.667-26.666 26.667z" />
<glyph unicode="&#xe602;" d="M74.666 127.467h362.666v-127.466c0-17.6-14.4-32-32-32h-298.666c-17.6 0-32 14.4-32 32v127.466zM139.392 19.648c-2.432-3.584-2.816-5.888-2.816-8.064 0-5.11 3.968-8.96 10.112-8.96 3.2 0 6.4 1.152 8.192 4.096l18.166 29.046 16.886-28.267c2.432-4.096 5.365-4.864 8.832-4.864 5.877 0 10.742 3.584 10.742 10.368 0 2.432-1.28 4.096-3.456 7.413l-20.853 31.339 21.365 31.221c1.024 1.408 1.92 3.829 1.92 5.622 0 6.656-4.992 9.472-10.101 9.472-4.608 0-6.4-1.654-8.576-5.11l-16.245-26.229-15.221 26.23c-1.28 2.176-3.712 5.11-8.694 5.11-6.016 0-10.496-4.341-10.496-9.846 0-2.442 0.896-4.48 2.176-6.411l20.085-30.058-22.016-32.106zM220.672 16.576c0-9.344 4.864-12.277 12.278-12.277h43.755c6.005 0 10.88 3.072 10.88 8.822 0 5.76-4.864 8.832-10.88 8.832h-35.050v65.621c0 6.272-4.096 10.486-10.486 10.486s-10.486-4.224-10.486-10.486v-70.998zM329.579 61.6c-6.666 1.536-14.336 3.584-14.336 9.984s5.376 10.88 15.104 10.88c19.563 0 17.77-13.685 27.498-13.685 5.11 0 9.579 3.072 9.579 8.31 0 12.277-19.317 21.493-35.69 21.493-17.771 0-36.704-7.68-36.704-28.149 0-9.846 3.445-20.33 22.496-25.195l23.669-6.005c7.168-1.792 8.96-5.888 8.96-9.589 0-6.144-5.995-12.16-16.875-12.16-21.248 0-18.293 16.64-29.685 16.64-5.11 0-8.822-3.584-8.822-8.704 0-9.984 11.894-23.286 38.507-23.286 25.334 0 37.856 12.416 37.856 29.046 0 10.752-4.853 22.134-24.043 26.474l-17.514 3.947zM370.795 327.616c-17.664 0-33.654 7.168-45.226 18.742-11.584 11.584-18.731 27.584-18.752 45.248v67.062h-200.149c-17.6 0-32-14.4-32-32v-267.2h362.666v168.15h-66.538zM348.192 368.981c6.038-6.037 14.070-9.365 22.603-9.365h66.538l-98.517 99.050v-67.062c0.010-8.534 3.339-16.587 9.376-22.624z" />
<glyph unicode="&#xe603;" d="M31.989 69.749c-17.59 0-31.989 14.4-31.989 31.978v298.72c0 6.101 1.824 11.776 4.822 16.65l195.264-195.264c12.49-12.491 28.875-18.742 45.248-18.742 16.384 0 32.768 6.25 45.248 18.752l195.274 195.243c2.998-4.864 4.81-10.528 4.81-16.64v-180.982c-6.837 2.038-13.995 3.104-21.334 3.104-19.957 0-38.709-7.776-52.81-21.878l-103.541-103.541-0.33-0.683c-6.688-7.786-11.52-16.875-14.474-26.709h-266.187zM245.333 264.427c8.544 0 16.576 3.328 22.624 9.376l158.624 158.624h-362.507l158.635-158.624c6.048-6.048 14.080-9.376 22.624-9.376zM284.394 14.688l0.214 1.184 0.288 1.184 5.184 20.683h-258.080c-8.832 0-16-7.168-16-16s7.168-16 16-16h251.786c-0.032 2.966 0.086 5.952 0.608 8.95zM492.896 111.125l6.603 6.603c16.662 16.661 16.65 43.669 0 60.331-8.331 8.331-19.253 12.502-30.166 12.502-10.933 0-21.856-4.171-30.187-12.502l-6.603-6.603 60.352-60.33zM470.272 88.501l-60.352 60.331-70.646-70.666c-6.454-6.442-10.358-14.454-11.786-22.816l-11.541-46.080c-1.526-8.789 3.627-15.019 11.755-15.019 0.981 0 1.984 0.086 3.019 0.267l46.058 11.52c8.373 1.462 16.394 5.354 22.858 11.808l6.603 6.582-0.022 0.022 64.053 64.053z" />
<glyph unicode="&#xe604;" d="M290.656 106.315c0-19.146-15.521-34.666-34.666-34.666-19.146 0-34.666 15.521-34.666 34.666 0 19.146 15.521 34.666 34.666 34.666 19.146 0 34.666-15.521 34.666-34.666zM256.022 248.331c-36.267 0.022-72.779-13.93-100.448-41.6-10.422-10.411-10.422-27.296 0-37.718s27.296-10.421 37.718-0.010c17.387 17.365 39.946 25.962 62.73 25.995 22.774-0.032 45.291-8.608 62.666-25.974 10.411-10.421 27.296-10.432 37.707-0.022s10.432 27.296 0.022 37.707c-27.648 27.712-64.149 41.654-100.394 41.622zM431.851 282.133c-48.48 48.555-112.267 72.918-175.798 72.885-63.584 0.032-127.403-24.352-175.893-72.864-10.421-10.422-10.421-27.307 0-37.718 10.421-10.422 27.306-10.422 37.718 0 38.23 38.208 88.096 57.227 138.186 57.258 50.058-0.032 99.861-19.008 138.070-57.237 10.411-10.422 27.296-10.432 37.707-0.022 10.411 10.4 10.421 27.286 0.010 37.696z" />
<glyph unicode="&#xe605;" d="M309.642 386.4v34.421c0 8.843 7.19 16 16.043 16s16.032-7.157 16.032-16v-34.432c0-8.843-7.178-16-16.032-16s-16.043 7.168-16.043 16.011zM433.002 166.443c-6.262 6.24-16.416 6.24-22.678-0.010s-6.262-16.384 0-22.635l24.406-24.331c6.272-6.24 16.438-6.24 22.709 0.010 6.24 6.25 6.24 16.384-0.022 22.635l-24.416 24.331zM433.046 335.392l24.394 24.331c6.262 6.25 6.262 16.384 0 22.635-6.25 6.25-16.416 6.25-22.688 0l-24.384-24.331c-6.262-6.25-6.262-16.384 0-22.635 6.24-6.25 16.416-6.25 22.678 0zM495.957 266.901h-34.486c-8.853 0-16.043-7.158-16.043-16s7.19-16 16.043-16h34.486c8.853 0 16.043 7.157 16.043 16s-7.19 16-16.043 16zM319.062 201.045l1.344 0.010c21.226 0 40.8-7.221 56.438-19.274 3.424 2.517 6.752 5.226 9.846 8.31 33.654 33.6 33.675 88.064 0 121.675-33.728 33.632-88.33 33.6-121.984 0.022-10.602-10.582-17.877-23.221-21.803-36.64 33.696-13.974 61.238-40.384 76.16-74.102zM218.304 335.435c6.272-6.25 16.438-6.25 22.709-0.011 6.262 6.24 6.262 16.373 0 22.624l-24.394 24.352c-6.262 6.25-16.416 6.25-22.678 0.010s-6.262-16.373-0.022-22.624l24.384-24.352zM188.054 254.144c-61.376 0-111.232-49.643-111.232-110.891-42.379 0.010-76.822-34.368-76.822-76.704 0-40.31 31.2-73.312 70.688-76.416 2.037-0.245 4.053-0.288 6.133-0.288 0 0 25.162 0 61.206 0l249.91 0.043c28.064 0.747 50.507 23.531 50.507 51.669 0 28.544-23.2 51.648-51.84 51.648-2.635 0-5.269-0.171-7.829-0.587 1.44 5.12 2.187 10.454 2.187 16.022 0 33.418-27.147 60.416-60.555 60.416-8.267 0-16.192-1.546-23.296-4.587-9.846 51.115-54.954 89.675-109.056 89.675z" />
<glyph unicode="&#xe606;" d="M418.154 51.168c-89.546-89.558-234.762-89.558-324.32 0-89.558 89.568-89.558 234.774-0.010 324.331 89.568 89.557 234.762 89.557 324.33 0 89.579-89.558 89.579-234.763 0-324.331zM205.654 68.117c10.4 0 18.891 8.49 18.901 18.89l0.011 52.064c0.011 10.411-8.523 18.912-18.88 18.89l-21.792 0.032c-10.4 0-18.88 8.469-18.869 18.89v85.002c0 10.379 8.512 18.912 18.88 18.902l1.93-0.032 19.84 0.010c10.389 0.011 18.912 8.512 18.891 18.88l0.011 52.075c0.011 10.4-8.48 18.901-18.88 18.89l-9.845-0.010c-63.84 0.032-90.165-54.422-90.186-149.974l0.064-2.506c-0.010-95.478 26.262-149.974 90.123-149.995l9.803-0.010zM338.55 226.635v24.928l72.48-0.011c8.832 0 16 7.157 16 16s-7.168 16.011-16 16l-72.48 0.011v24.864c0 4.832-2.293 7.712-5.546 7.702-1.163 0.011-2.432-0.352-3.776-1.109l-66.624-41.205c-4.885-3.456-4.885-9.088 0-12.523l66.624-41.206c1.334-0.779 2.635-1.142 3.776-1.142 3.253 0 5.546 2.858 5.546 7.691zM347.413 200.021v-24.918l-72.469 0.010c-8.842 0-16-7.168-16-16 0-8.853 7.158-16 16-16h72.48v-24.875c-0.010-4.81 2.283-7.69 5.546-7.69 1.163-0.022 2.432 0.341 3.765 1.11l66.624 41.216c4.896 3.424 4.906 9.077 0.032 12.512l-66.656 41.206c-1.334 0.768-2.613 1.13-3.776 1.13-3.253 0.010-5.546-2.858-5.546-7.702z" />
<glyph unicode="&#xe607;" d="M377.675 379.083h-345.675c-17.6 0-32-14.4-32-32v-267.498c0-17.6 14.4-32 32-32h345.675c17.6 0 32 14.4 32 32v267.499c0 17.6-14.389 32-32 32zM204.853 79.584c-73.888 0-133.781 59.872-133.781 133.75 0.010 73.877 59.894 133.75 133.76 133.75 73.877 0 133.76-59.872 133.77-133.771 0-73.856-59.872-133.728-133.75-133.728zM295.765 223.733l-132.374 79.37c-8.544 4.875-15.52-0.064-15.52-10.954v-157.643c0-10.89 6.976-15.829 15.52-10.954l132.374 79.317c8.128 5.738 8.128 15.136 0 20.864zM496.48 303.125l-52.683-31.574v-116.406l52.683-31.584c8.544-4.896 15.52 0.043 15.52 10.933v157.675c0 10.891-6.976 15.829-15.52 10.954z" />
<glyph unicode="&#xe608;" d="M388.789 271.829c14.731 0 26.666-11.936 26.666-26.667v-98.859h52.214c8.043 0 12.832-3.808 12.832-9.226 0-1.92-0.608-4.064-1.899-6.293l-79.35-132.374c-2.87-4.075-6.646-6.101-10.432-6.101s-7.574 2.026-10.442 6.101l-79.339 132.374c-1.269 2.229-1.877 4.352-1.877 6.293 0 5.418 4.789 9.226 12.832 9.226h52.128v98.859c0 14.73 11.936 26.667 26.666 26.667zM274.603 109.312h-211.104c-17.6 0-32 14.4-32 32v261.046c0 17.6 14.4 32 32 32h21.418v-37.334c0-8.842 7.168-16 16-16 8.843 0 16 7.158 16 16v37.334h32v-37.334c0-8.842 7.168-16 16-16 8.843 0 16 7.158 16 16v37.334h149.237v-37.334c0-8.842 7.168-16 16-16s16 7.158 16 16v37.334h32v-37.334c0-8.842 7.168-16 16-16s16 7.158 16 16v37.334h21.334c17.6 0 32-14.4 32-32v-225.558c-3.776 0.885-7.67 1.514-11.819 1.514h-20.214v66.859c0 32.352-26.325 58.667-58.666 58.667s-58.666-26.315-58.666-58.667v-66.859h-20.128c-25.558 0-44.832-17.728-44.832-41.226 0-7.627 2.038-15.072 6.070-22.144l0.182-0.298 0.182-0.288 3.008-5.046zM143.339 308.117c-23.648 0-42.816-19.168-42.816-42.806 0-14.57 7.306-27.434 18.442-35.168-48.853-10.667-51.722-37.686-52.416-53.792-0.15-3.435 2.389-7.541 5.718-8.416 8.427-2.208 25.398-5.291 71.072-5.291 45.654 0 62.624 3.082 71.061 5.291 3.328 0.875 5.856 4.981 5.707 8.416-0.694 16.106-3.563 43.125-52.416 53.792 11.147 7.733 18.442 20.597 18.442 35.168 0.011 23.637-19.157 42.805-42.794 42.805z" />
<glyph unicode="&#xe609;" d="M448 375.851h-21.334v-37.333c0-8.842-7.168-16-16-16s-16 7.158-16 16v37.333h-32v-37.333c0-8.842-7.168-16-16-16s-16 7.158-16 16v37.333h-149.238v-37.333c0-8.842-7.157-16-16-16-8.832 0-16 7.158-16 16v37.333h-32v-37.333c0-8.842-7.157-16-16-16-8.832 0-16 7.158-16 16v37.333h-21.43c-17.6 0-32-14.4-32-32v-261.046c0-17.6 14.4-32 32-32h384c17.6 0 32 14.4 32 32v261.046c0 17.611-14.4 32-32 32zM214.901 109.44c-8.438-2.208-25.408-5.291-71.061-5.291-45.674 0-62.645 3.082-71.072 5.291-3.328 0.875-5.867 4.981-5.718 8.416 0.694 16.106 3.563 43.125 52.416 53.792-11.136 7.733-18.442 20.598-18.442 35.168 0 23.638 19.168 42.806 42.816 42.806 23.637 0 42.805-19.168 42.805-42.806 0-14.57-7.306-27.435-18.442-35.168 48.853-10.666 51.722-37.685 52.416-53.792 0.138-3.435-2.389-7.541-5.718-8.416zM432 128.875h-142.187c-8.832 0-16 7.168-16 16s7.168 16 16 16h142.187c8.832 0 16-7.168 16-16s-7.168-16-16-16zM432 192.875h-142.187c-8.832 0-16 7.168-16 16 0 8.843 7.168 16 16 16h142.187c8.832 0 16-7.157 16-16 0-8.832-7.168-16-16-16z" />
<glyph unicode="&#xe60a;" d="M266.454 257.803c-5.75 8.149-15.147 8.149-20.875 0l-79.36-132.374c-4.886-8.544 0.054-15.52 10.944-15.52h52.203v-96.661c0-14.731 11.936-26.666 26.666-26.666s26.666 11.936 26.666 26.666v96.661h52.128c10.89 0 15.84 6.976 10.966 15.52l-79.339 132.374zM421.354 440.096h-330.709c-32.331 0-58.645-26.314-58.645-58.645v-112.043c0-32.33 26.314-58.656 58.645-58.656h47.019c14.731 0 26.666 11.936 26.666 26.678 0 14.731-11.936 26.666-26.666 26.666h-20.352c-17.578 0-31.978 14.368-31.978 31.979v58.709c0 17.579 14.4 31.979 31.978 31.979h277.376c17.579 0 31.978-14.4 31.978-31.979v-58.709c0-17.6-14.4-31.979-31.978-31.979h-20.352c-14.731 0-26.666-11.936-26.666-26.666 0-14.742 11.936-26.678 26.666-26.678h47.019c32.331 0 58.645 26.326 58.645 58.656v112.043c0 32.331-26.315 58.646-58.645 58.646z" />
<glyph unicode="&#xe60b;" d="M389.12 78.688l-31.349 177.91c0 0 10.837 10.838 52.81 52.832 18.4 18.4 27.978 39.19 32.938 56.757l8.438 33.654v-0.022c0.544 3.168-0.245 5.781-1.962 7.498s-4.352 2.518-7.498 1.984l0.022-0.032-33.664-8.426c-17.558-4.939-38.379-14.528-56.746-32.917-42.005-42.005-52.832-52.822-52.832-52.822l-177.899 31.349c0 0-19.296 3.552-27.712-4.864-8.427-8.427-19.254-19.232-19.254-19.232s-9.611-10.838 7.819-19.872c17.43-9.002 134.688-69.728 134.688-69.728l-60.16-77.014c0 0-7.232-12.043-18.656-10.229l-60.661 2.229c-4.234-0.608-8.32-2.454-11.584-5.728-8-8-8-21.002 0-29.024 1.344-1.334 2.891-2.378 4.469-3.274 0.053-0.086 0.138-0.171 0.138-0.171s46.507-23.606 52.352-29.44c5.814-5.813 29.418-52.33 29.418-52.33s0.075-0.064 0.171-0.149c0.886-1.558 1.93-3.104 3.264-4.459 8.011-8 20.992-7.978 29.024 0 3.243 3.296 5.109 7.349 5.718 11.584l-2.23 60.683c-1.792 11.392 10.23 18.624 10.23 18.624l76.992 60.171c0 0 60.747-117.269 69.75-134.709 9.024-17.44 19.829-7.808 19.829-7.808s10.837 10.816 19.274 19.253c8.426 8.426 4.864 27.723 4.864 27.723z" />
<glyph unicode="&#xe60c;" d="M112 371.147h288c14.731 0 26.666 11.936 26.666 26.666s-11.936 26.666-26.666 26.666h-90.666c0 14.731-11.936 26.667-26.666 26.667h-53.334c-14.731 0-26.666-11.936-26.666-26.667h-90.666c-14.73 0-26.666-11.936-26.666-26.666s11.936-26.666 26.666-26.666zM402.741 339.008c-14.656 1.514-27.755-9.142-29.259-23.786l-2.25-21.824-230.453-0.010-2.25 21.834c-1.514 14.656-14.614 25.302-29.258 23.787s-25.302-14.614-23.787-29.259l32-310.294c1.397-13.6 12.854-23.925 26.528-23.925h21.322c0 0 0 0 0 0l202.667 0.010c13.675 0 25.12 10.325 26.517 23.925l32 310.283c1.526 14.645-9.13 27.744-23.776 29.258z" />
<glyph unicode="&#xe60d;" d="M112 371.147h288c14.731 0 26.666 11.936 26.666 26.666s-11.936 26.666-26.666 26.666h-90.666c0 14.731-11.936 26.667-26.666 26.667h-53.334c-14.731 0-26.666-11.936-26.666-26.667h-90.666c-14.73 0-26.666-11.936-26.666-26.666s11.936-26.666 26.666-26.666zM402.741 339.008c-14.656 1.514-27.755-9.142-29.259-23.786l-29.546-286.346-175.882-0.010-29.536 286.358c-1.514 14.656-14.614 25.302-29.258 23.787s-25.302-14.614-23.787-29.259l32-310.294c1.397-13.6 12.854-23.925 26.528-23.925l224 0.010c13.675 0 25.12 10.325 26.517 23.925l32 310.283c1.526 14.645-9.13 27.744-23.776 29.258z" />
<glyph unicode="&#xe60e;" d="M255.989 357.333c38.464 0 74.635-14.976 101.835-42.166 56.139-56.149 56.139-147.498 0-203.648-27.211-27.211-63.37-42.187-101.834-42.187s-74.624 14.976-101.824 42.187c-56.128 56.149-56.128 147.499-0.011 203.627 27.2 27.211 63.37 42.187 101.835 42.187zM418.166 375.499c-44.789 44.768-103.488 67.168-162.176 67.168-58.698 0-117.387-22.4-162.176-67.168-89.536-89.558-89.536-234.752 0-324.31 44.79-44.789 103.478-67.19 162.176-67.19 58.688 0 117.387 22.4 162.176 67.19 89.558 89.558 89.558 234.752 0 324.31zM380.459 88.896c-33.258-33.248-77.462-51.563-124.469-51.563s-91.21 18.315-124.459 51.563c-68.597 68.608-68.597 180.267-0.011 248.875 33.248 33.248 77.462 51.563 124.47 51.563s91.221-18.315 124.459-51.542c68.618-68.63 68.618-180.267 0.010-248.896zM330.666 229.333h-58.666v58.666c0 8.832-7.158 16-16 16-8.832 0-16-7.168-16-16v-74.666c0-8.832 7.168-16 16-16h74.666c8.832 0 16 7.168 16 16s-7.168 16-16 16z" />
<glyph unicode="&#xe60f;" d="M119.787 322.827c-14.71-0.011-26.656 11.946-26.656 26.656 0 14.731 11.936 26.666 26.677 26.678 14.72 0 26.656-11.936 26.656-26.656 0-14.752-11.936-26.688-26.677-26.678zM442.816 192.331c-1.142 1.76-2.517 3.445-4.086 5.014l-190.549 190.55c-12.47 12.448-37.046 23.061-54.635 23.606l-104.704-0.022c-17.558 0.522-31.531-13.43-30.998-31.019v-104.672c0.554-17.611 11.157-42.176 23.616-54.624l190.57-190.55c1.558-1.546 3.232-2.901 5.002-4.086 20.896-16.33 51.253-15.094 70.421 4.064l91.317 91.35c19.147 19.168 20.352 49.514 4.043 70.389z" />
<glyph unicode="&#xe610;" d="M475.040 176c-14.005 4.555-29.056-3.115-33.6-17.12-8.31-25.558-22.55-49.546-42.912-69.92-34.442-34.421-79.328-51.52-124.459-51.552-45.13 0.032-90.005 17.12-124.448 51.531l36.886 36.885c7.702 7.712 6.272 16.128-3.21 18.731l-149.738 37.45c-9.813 1.728-16.459-4.918-14.762-14.752l37.514-149.696c2.581-9.493 11.008-10.901 18.73-3.2l36.874 36.864c44.715-44.714 103.562-67.19 162.166-67.158 58.603-0.032 117.462 22.442 162.176 67.158l0.010 0.010c26.411 26.421 45.109 57.846 55.914 91.158 4.534 14.016-3.125 29.056-17.142 33.611zM36.95 250.752c14.005-4.544 29.056 3.114 33.6 17.12 8.309 25.558 22.56 49.558 42.912 69.93l-0.010-0.010c34.443 34.41 79.338 51.52 124.469 51.552 45.12-0.032 90.005-17.131 124.448-51.542l-36.885-36.885c-7.69-7.712-6.272-16.128 3.211-18.731l149.728-37.462c9.813-1.728 16.459 4.917 14.774 14.752l-37.514 149.718c-2.582 9.493-10.998 10.901-18.731 3.2l-36.864-36.864c-44.714 44.725-103.563 67.178-162.166 67.157-58.602 0.022-117.451-22.454-162.166-67.168l-0.010-0.011c-26.4-26.421-45.099-57.834-55.914-91.146-4.555-14.016 3.114-29.056 17.12-33.611z" />
<glyph unicode="&#xe611;" d="M418.154 51.168c-89.546-89.558-234.762-89.558-324.32 0-89.558 89.568-89.558 234.774-0.010 324.331 89.568 89.557 234.762 89.557 324.33 0 89.579-89.558 89.579-234.763 0-324.331zM233.333 226.165v41.547l152.821-0.022c14.709 0 26.645 11.936 26.666 26.667-0.022 14.752-11.957 26.678-26.666 26.678l-152.821 0.010v41.44c0 8.042-3.829 12.832-9.226 12.832-1.941 0.022-4.085-0.587-6.293-1.867l-111.040-68.672c-8.16-5.738-8.16-15.136-0.010-20.875l111.050-68.672c2.197-1.301 4.374-1.899 6.272-1.899 5.429 0 9.248 4.79 9.248 12.832zM278.666 200.501v-41.546l-152.81 0.022c-14.72 0-26.656-11.936-26.666-26.666 0.010-14.752 11.947-26.678 26.656-26.678l152.821-0.010v-41.44c0-8.043 3.829-12.832 9.226-12.832 1.942-0.022 4.086 0.587 6.293 1.866l111.040 68.672c8.171 5.738 8.171 15.136 0.022 20.875l-111.061 68.683c-2.208 1.291-4.373 1.888-6.272 1.888-5.44 0-9.248-4.79-9.248-12.832z" />
<glyph unicode="&#xe612;" d="M321.664 167.243c29.824 20.661 49.418 54.987 49.696 93.91-0.010 0.352-0.106 0.672-0.106 1.034-0.022 31.957-12.81 60.438-33.738 81.429-7.872 7.84-16.8 14.538-26.56 19.851-13.056 7.082-27.627 11.712-43.094 13.291-3.882 0.394-7.819 0.598-11.808 0.598-7.178 0-14.155-0.747-20.939-1.995-0.768-0.139-1.558-0.202-2.326-0.352-0.075-0.011-0.138-0.032-0.214-0.054-3.669-0.768-7.296-1.696-10.838-2.795-17.994-5.589-34.037-15.488-47.157-28.554-20.917-20.992-33.707-49.482-33.738-81.418 0.011-7.904 0.8-15.584 2.304-22.998 0.032-0.138 0.054-0.267 0.085-0.405 0.736-3.648 1.664-7.221 2.752-10.72 0.042-0.128 0.085-0.245 0.118-0.374 5.611-17.91 15.466-33.878 28.49-46.934 15.030-14.954 33.952-25.664 55.19-30.613 7.915 3.99 16.832 6.293 26.283 6.293 32.341 0 58.666-26.325 58.666-58.666 0-2.026-0.106-4.032-0.298-5.995-2.933-29.622-28-52.842-58.378-52.842-15.552 0-29.674 6.123-40.192 16.043-42.166 8.16-80.053 28.768-109.12 57.899-4.171 4.118-8.075 8.512-11.862 12.992-40.682-33.195-44.533-74.848-45.792-103.606-0.395-9.248 6.453-20.31 15.434-22.666 22.688-5.962 68.438-14.272 191.52-14.272 123.061 0 168.747 8.31 191.498 14.272 8.981 2.358 15.776 13.418 15.37 22.666-1.846 43.413-9.6 116.224-141.248 144.982zM256.053 441.344c-70.442-0.011-131.221-40.746-160.512-99.861-18.763-0.726-35.488-13.675-39.925-32.843-3.382-14.635-5.44-30.197-5.44-46.464 0-16.278 2.048-31.862 5.45-46.518 4.438-19.157 21.163-32.106 39.926-32.822 26.016-52.512 76.928-90.358 137.398-98.166 4.587-8.075 13.152-13.579 23.104-13.579 14.731 0 26.666 11.936 26.666 26.666s-11.936 26.666-26.666 26.666c-7.477 0-14.208-3.094-19.050-8.043-48.49 6.293-89.558 36.053-111.338 77.611-2.454 4.683-4.618 9.546-6.57 14.507-0.416 1.056-0.778 2.123-1.162 3.19-1.483 4.032-2.773 8.149-3.904 12.32-0.394 1.472-0.778 2.944-1.13 4.427-0.95 4.011-1.674 8.107-2.293 12.234-0.224 1.514-0.522 2.998-0.683 4.534-0.65 5.568-1.056 11.221-1.056 16.96 0 5.76 0.406 11.403 1.056 16.971 0.181 1.525 0.469 2.997 0.683 4.501 0.618 4.139 1.344 8.245 2.304 12.267 0.341 1.472 0.736 2.923 1.12 4.384 1.13 4.214 2.442 8.352 3.925 12.406 0.374 1.024 0.725 2.070 1.12 3.083 1.984 5.024 4.171 9.952 6.666 14.688v0c6.934 13.205 15.766 25.269 26.24 35.755 26.688 26.666 63.382 43.104 104.086 43.114 40.693-0.011 77.408-16.448 104.096-43.104 26.666-26.678 43.104-63.37 43.115-104.064 0-8.843 7.168-16 16-16s16 7.157 16 16c-0.022 98.976-80.256 179.157-179.221 179.178z" />
<glyph unicode="&#xe613;" d="M338.816 458.667h-232.149c-17.6 0-32-14.4-32-32v-426.666c0-17.6 14.4-32 32-32h298.666c17.6 0 32 14.4 32 32v359.616l-98.517 99.050zM160 37.333c0-8.832-7.168-16-16-16s-16 7.168-16 16v23.478c0 8.832 7.168 16 16 16s16-7.168 16-16v-23.478zM160 116.811c0-8.832-7.168-16-16-16s-16 7.168-16 16v23.478c0 8.832 7.168 16 16 16s16-7.168 16-16v-23.478zM160 196.288c0-8.832-7.168-16-16-16s-16 7.168-16 16v23.478c0 8.832 7.168 16 16 16s16-7.168 16-16v-23.478zM228 21.333h-28c-8.843 0-16 7.168-16 16s7.157 16 16 16h28c8.843 0 16-7.168 16-16s-7.157-16-16-16zM228 203.776h-28c-8.843 0-16 7.168-16 16s7.157 16 16 16h28c8.843 0 16-7.168 16-16s-7.157-16-16-16zM312 21.333h-28c-8.832 0-16 7.168-16 16s7.168 16 16 16h28c8.832 0 16-7.168 16-16s-7.168-16-16-16zM312 203.776h-28c-8.832 0-16 7.168-16 16s7.168 16 16 16h28c8.832 0 16-7.168 16-16s-7.168-16-16-16zM384 37.333c0-8.832-7.168-16-16-16s-16 7.168-16 16v23.478c0 8.832 7.168 16 16 16s16-7.168 16-16v-23.478zM384 116.811c0-8.832-7.168-16-16-16s-16 7.168-16 16v23.478c0 8.832 7.168 16 16 16s16-7.168 16-16v-23.478zM384 196.288c0-8.832-7.168-16-16-16s-16 7.168-16 16v23.478c0 8.832 7.168 16 16 16s16-7.168 16-16v-23.478z" />
<glyph unicode="&#xe614;" d="M485.334 48c0-35.2-28.8-64-64-64h-330.666c-35.2 0-64 28.8-64 64v330.667c0 35.2 28.8 64 64 64h330.666c35.2 0 64-28.8 64-64v-330.667zM380.448 337.781c-68.736 68.736-180.181 68.736-248.917 0-68.704-68.726-68.704-180.16 0-248.896 68.736-68.736 180.181-68.736 248.917 0 68.726 68.736 68.726 180.171 0 248.896zM341.568 223.755l-132.374 79.36c-8.544 4.886-15.52-0.053-15.52-10.944v-157.654c0-10.89 6.976-15.84 15.52-10.966l132.374 79.339c8.139 5.728 8.139 15.125 0 20.864z" />
<glyph unicode="&#xe615;" d="M432 101.333c0-35.2-28.8-64-64-64h-224c-35.2 0-64 28.8-64 64v224c0 35.2 28.8 64 64 64h224c35.2 0 64-28.8 64-64v-224z" />
<glyph unicode="&#xe616;" d="M448.726 432c0 14.73-11.936 26.666-26.666 26.666h-53.334c-14.731 0-26.666-11.936-26.666-26.666v-400h106.666v400zM310.058 272c0 14.731-11.936 26.666-26.666 26.666h-53.334c-14.731 0-26.666-11.936-26.666-26.666v-240h106.666v240zM171.392 112c0 14.731-11.936 26.666-26.666 26.666h-53.334c-14.73 0-26.666-11.936-26.666-26.666v-80h106.666v80zM484.608-0h-457.216c-8.843 0-16-7.168-16-16s7.168-16 16-16h457.205c8.842 0 16 7.168 16 16s-7.158 16-15.99 16z" />
<glyph unicode="&#xe617;" d="M273.526 368.981c6.038-6.037 14.080-9.365 22.603-9.365h66.538l-98.528 99.050v-67.062c0.022-8.534 3.36-16.587 9.387-22.624zM327.466 10.219c-15.445 0-30.55 6.262-41.483 17.173l-78.944 78.933c-22.912 22.912-22.912 60.064 0 82.966 22.901 22.912 60.053 22.912 82.966 0.010l37.462-37.462 35.2 35.232v140.544h-66.538c-17.664 0-33.654 7.168-45.238 18.741-11.573 11.584-18.72 27.584-18.742 45.248v67.061h-200.149c-17.6 0-32-14.4-32-32v-426.667c0-17.6 14.4-32 32-32h298.666c17.6 0 32 14.4 32 32v22.262c-10.112-7.606-22.464-12.043-35.2-12.043zM48 290.005h266.666c8.832 0 16-7.157 16-16s-7.168-16-16-16h-266.666c-8.843 0-16 7.157-16 16s7.157 16 16 16zM142.272 89.557h-94.272c-8.843 0-16 7.168-16 16s7.157 16 16 16h94.272c8.843 0 16-7.168 16-16s-7.157-16-16-16zM142.272 173.781h-94.272c-8.843 0-16 7.168-16 16s7.157 16 16 16h94.272c8.843 0 16-7.168 16-16s-7.157-16-16-16zM466.474 245.632l-139.008-139.040-60.096 60.086c-10.411 10.421-27.296 10.421-37.718 0-10.411-10.421-10.411-27.307 0-37.707l78.944-78.933c4.971-4.971 11.829-7.808 18.858-7.808s13.899 2.848 18.858 7.808l157.866 157.899c10.422 10.422 10.422 27.296 0 37.718-10.411 10.4-27.296 10.4-37.707-0.022z" />
<glyph unicode="&#xe618;" d="M116.811 235.221c0-14.728-11.939-26.667-26.666-26.667s-26.666 11.939-26.666 26.667c0 14.727 11.939 26.667 26.666 26.667 14.727 0 26.666-11.939 26.666-26.667zM116.811 304.544c0-14.728-11.939-26.666-26.666-26.666s-26.666 11.939-26.666 26.666c0 14.728 11.939 26.667 26.666 26.667 14.727 0 26.666-11.939 26.666-26.667zM116.811 373.888c0-14.727-11.939-26.666-26.666-26.666s-26.666 11.939-26.666 26.666c0 14.728 11.939 26.667 26.666 26.667 14.727 0 26.666-11.939 26.666-26.667zM447.478 304.544c0 8.843-7.168 16-16 16h-33.322c8.534-8.49 14.432-19.606 16.469-32h16.853c8.832 0 16 7.168 16 16zM164.81 357.877h266.666c8.832 0 16 7.157 16 16s-7.168 16-16 16h-266.666c-8.832 0-16-7.158-16-16s7.168-16 16-16zM431.478 219.221c8.832 0 16 7.168 16 16 0 8.843-7.168 16-16 16h-16v-32h16zM164.81 219.221h133.334v32h-133.333c-8.832 0-16-7.157-16-16 0-8.832 7.168-16 16-16zM164.81 288.544h134.186c2.038 12.394 7.925 23.51 16.459 32h-150.645c-8.832 0-16-7.157-16-16s7.168-16 16-16zM356.81 305.643c14.731 0 26.666-11.936 26.666-26.666v-98.848h52.214c8.043 0 12.832-3.808 12.832-9.226 0-1.942-0.608-4.064-1.899-6.293l-79.349-132.373c-2.88-4.064-6.646-6.101-10.442-6.101-3.776 0-7.563 2.038-10.442 6.101l-79.339 132.374c-1.28 2.229-1.877 4.352-1.877 6.293 0 5.418 4.789 9.226 12.832 9.226h52.128v98.848c0.010 14.731 11.947 26.667 26.678 26.667z" />
<glyph unicode="&#xe619;" d="M248.288 107.552c-2.186 0-4.374 0.448-6.453 1.354-5.792 2.56-9.547 8.298-9.547 14.646v77.909h-5.685c-39.083 0-71.669 28.203-78.582 65.312h-100.106c-26.474 0-48-21.536-48-48v-139.915c0-26.464 21.526-48 48-48h113.227c4 0 7.851-1.504 10.794-4.202l75.776-69.365v57.557c0 8.842 7.168 16 16 16h21.685c26.454 0 48 21.536 48 48v100.918l-74.315-68.022c-2.998-2.741-6.869-4.192-10.794-4.192zM90.838 128.032c-14.731 0-26.666 11.936-26.666 26.666s11.936 26.666 26.666 26.666 26.666-11.936 26.666-26.666-11.947-26.666-26.666-26.666zM166.645 128.032c-14.731 0-26.667 11.936-26.667 26.666s11.936 26.666 26.666 26.666 26.666-11.936 26.666-26.666-11.936-26.666-26.666-26.666zM464.086 469.376h-237.482c-26.453 0-48-21.536-48-48v-139.915c0-26.464 21.547-48 48-48h21.685c8.832 0 16-7.157 16-16v-57.558l75.776 69.366c2.933 2.698 6.795 4.202 10.795 4.202h113.226c26.474 0 48 21.536 48 48v139.904c0 26.464-21.526 48-48 48zM269.546 330.635c-14.731 0-26.666 11.936-26.666 26.666s11.936 26.667 26.666 26.667 26.666-11.936 26.666-26.667-11.947-26.666-26.666-26.666zM345.354 330.635c-14.731 0-26.666 11.936-26.666 26.666s11.936 26.667 26.666 26.667 26.666-11.936 26.666-26.667-11.936-26.666-26.666-26.666zM421.163 330.635c-14.731 0-26.666 11.936-26.666 26.666s11.936 26.667 26.666 26.667 26.666-11.936 26.666-26.667-11.936-26.666-26.666-26.666z" />
<glyph unicode="&#xe61a;" d="M394.538 388.853c-23.563 0-42.666-19.104-42.666-42.667v-101.578l-233.269 141.738c-16.245 9.408-29.558-0.106-29.558-21.12v-303.765c0-21.034 13.312-30.528 29.558-21.142l233.269 141.707v-101.546c0-23.563 19.104-42.666 42.666-42.666s42.666 19.104 42.666 42.666v265.707c0 23.563-19.104 42.667-42.666 42.667z" />
<glyph unicode="&#xe61b;" d="M401.493 386.357l-233.269-141.707v101.546c0 23.563-19.104 42.667-42.666 42.667s-42.666-19.104-42.666-42.667v-265.707c0-23.563 19.104-42.666 42.666-42.666s42.666 19.104 42.666 42.666v101.579l233.269-141.75c16.245-9.408 29.558 0.106 29.558 21.12v303.766c0 21.034-13.312 30.538-29.558 21.152z" />
<glyph unicode="&#xe61c;" d="M248.374 236.555c6.752 9.013 13.547 17.376 20.619 24.576 10.315 10.582 20.918 18.805 32.555 24.426 11.68 5.6 24.49 8.886 40.768 8.918h0.096v-52.171c0-10.891 6.976-15.829 15.52-10.954l132.374 79.37c8.149 5.728 8.149 15.125 0 20.875l-132.374 79.339c-8.544 4.875-15.52-0.085-15.52-10.976v-52.149h-0.096c-20.757 0.022-39.786-3.925-56.63-10.934-14.741-6.112-27.755-14.464-39.232-24-11.328-9.418-21.142-19.978-30.186-30.944 5.408-6.986 10.496-13.974 15.339-20.81 5.899-8.427 11.424-16.65 16.768-24.566zM150.635 190.656c-4.746-5.974-9.558-11.574-14.496-16.608-10.314-10.582-20.918-18.816-32.554-24.426-11.68-5.6-24.49-8.885-40.768-8.928h-20.555c-14.73 0-26.666-11.936-26.666-26.666s11.936-26.666 26.666-26.666h20.555c20.757-0.022 39.786 3.925 56.63 10.933 14.742 6.112 27.755 14.464 39.232 24 8.554 7.115 16.171 14.923 23.339 23.019-2.901 3.936-5.75 7.872-8.49 11.755-8.171 11.659-15.68 23.029-22.891 33.589zM490.304 115.936l-132.374 79.37c-8.544 4.875-15.52-0.064-15.52-10.954v-52.149h-0.096c-14.176 0.022-25.717 2.538-36.182 6.87-9.142 3.786-17.514 9.067-25.622 15.786-14.187 11.723-27.37 28.075-40.48 46.709-19.797 27.894-38.965 60.651-65.686 88.256-13.398 13.76-28.939 26.24-47.552 35.243-18.582 9.024-40.15 14.272-63.978 14.229h-20.555c-14.73 0-26.666-11.936-26.666-26.666s11.936-26.667 26.666-26.667h20.555c14.176-0.021 25.718-2.549 36.181-6.869 9.142-3.786 17.514-9.066 25.621-15.786 14.186-11.722 27.37-28.075 40.48-46.709 19.798-27.894 38.965-60.64 65.685-88.256 13.398-13.76 28.938-26.25 47.552-35.243 18.582-9.034 40.149-14.283 63.978-14.24h0.096v-52.171c0-10.89 6.976-15.851 15.52-10.976l132.373 79.339c8.139 5.76 8.139 15.158 0 20.885z" />
<glyph unicode="&#xe61d;" d="M507.168 261.632c-1.376 7.157-7.456 12.501-14.741 12.938l-32.661 1.984c-3.894 12.554-9.024 24.554-15.062 36l21.76 24.576c4.832 5.462 5.365 13.514 1.28 19.552-17.76 26.304-40.661 49.696-68.31 68.406-6.038 4.086-14.112 3.563-19.574-1.269l-24.608-21.792c-11.445 6.048-23.445 11.168-36 15.072l-1.984 32.598c-0.438 7.286-5.76 13.354-12.928 14.741-15.829 3.072-32.064 4.662-48.49 4.662-15.936 0-32.053-1.504-48.181-4.619-7.168-1.376-12.49-7.456-12.939-14.741l-1.984-32.64c-12.554-3.904-24.566-9.035-36.011-15.083l-24.565 21.76c-5.462 4.832-13.525 5.365-19.563 1.28-26.304-17.77-49.696-40.683-68.384-68.32-4.085-6.037-3.563-14.112 1.27-19.574l21.792-24.618c-6.038-11.445-11.157-23.445-15.062-36l-32.597-1.984c-7.285-0.438-13.344-5.76-14.742-12.918-3.072-15.84-4.672-32.075-4.672-48.523 0-15.914 1.494-32.032 4.608-48.149 1.376-7.168 7.456-12.502 14.742-12.938l32.672-1.984c3.904-12.544 9.024-24.534 15.072-35.968l-21.782-24.598c-4.832-5.462-5.365-13.514-1.28-19.563 17.77-26.315 40.682-49.707 68.32-68.394 6.037-4.096 14.112-3.563 19.573 1.269l24.64 21.824c11.435-6.038 23.424-11.158 35.968-15.062l1.984-32.63c0.438-7.286 5.76-13.354 12.917-14.741 15.829-3.072 32.064-4.672 48.502-4.672 15.925 0 32.043 1.504 48.171 4.619 7.168 1.386 12.502 7.456 12.938 14.741l1.995 32.683c12.534 3.894 24.522 9.014 35.957 15.050l24.608-21.781c5.462-4.832 13.514-5.365 19.552-1.28 26.315 17.75 49.696 40.661 68.406 68.288 4.096 6.038 3.563 14.112-1.269 19.574l-21.824 24.651c6.038 11.435 11.168 23.435 15.072 35.978l32.618 1.984c7.286 0.438 13.354 5.76 14.741 12.928 3.072 15.829 4.672 32.064 4.672 48.502-0.010 15.946-1.514 32.064-4.618 48.182zM210.197 99.52c-0.374 0.149-0.768 0.182-1.152 0.298-0.384 0.202-0.714 0.48-1.12 0.661-14.080 5.984-27.21 14.613-38.678 26.070-11.456 11.456-20.107 24.608-26.101 38.678-0.16 0.363-0.405 0.661-0.587 1.014-0.128 0.426-0.171 0.864-0.341 1.28-5.728 14.187-8.906 29.579-8.906 45.792v0.043c0 16.181 3.19 31.584 8.886 45.76 0.149 0.373 0.181 0.768 0.298 1.142 0.202 0.394 0.48 0.726 0.661 1.13 5.984 14.080 14.624 27.2 26.080 38.667v0c11.446 11.456 24.597 20.096 38.656 26.080 0.394 0.171 0.704 0.438 1.088 0.63 0.405 0.128 0.821 0.16 1.216 0.32 14.186 5.738 29.578 8.917 45.802 8.917 16.214 0 31.616-3.179 45.803-8.886 0.373-0.149 0.779-0.181 1.163-0.309 0.384-0.202 0.704-0.48 1.11-0.651 14.070-5.984 27.2-14.624 38.656-26.080l0.010-0.011c11.466-11.466 20.106-24.587 26.101-38.666 0.16-0.384 0.426-0.683 0.608-1.046 0.139-0.416 0.171-0.842 0.33-1.248 5.717-14.176 8.896-29.568 8.896-45.782 0-16.224-3.178-31.606-8.906-45.813-0.16-0.384-0.192-0.789-0.31-1.184-0.202-0.373-0.469-0.693-0.64-1.099-5.984-14.058-14.613-27.2-26.080-38.656v-0.010c-11.466-11.456-24.598-20.096-38.688-26.101-0.373-0.16-0.661-0.416-1.024-0.608-0.416-0.128-0.842-0.16-1.248-0.32-14.187-5.717-29.579-8.896-45.792-8.896s-31.595 3.168-45.792 8.885z" />
<glyph unicode="&#xe61e;" d="M256 466.987c72.81-28.192 136.63-47.669 203.616-58.176 17.334-2.709 30.816-17.269 30.816-33.302 0-284.341-197.642-416.277-234.432-416.277-36.779 0-234.432 131.936-234.432 416.266 0 16.032 13.462 30.592 30.816 33.302 67.029 10.517 130.784 29.974 203.616 58.186zM360.438 258.667h-69.77v69.781c0 19.147-15.52 34.666-34.666 34.666s-34.666-15.52-34.666-34.666v-69.781h-69.803c-19.147 0-34.666-15.52-34.666-34.667s15.52-34.667 34.666-34.667h69.803v-69.803c0-19.147 15.52-34.666 34.666-34.666s34.666 15.52 34.666 34.666v69.803h69.77c19.147 0 34.666 15.52 34.666 34.667s-15.52 34.667-34.666 34.667z" />
<glyph unicode="&#xe61f;" d="M478.166-8.832c-16.661-16.661-43.68-16.661-60.33 0l-65.525 65.526c-35.552-23.574-76.597-35.36-117.654-35.36-54.602 0-109.195 20.832-150.858 62.486-83.285 83.328-83.285 218.379 0 301.685 41.664 41.664 96.256 62.496 150.858 62.496 54.592 0 109.195-20.832 150.87-62.496 72.971-72.981 82.005-185.654 27.125-268.49l65.525-65.526c16.661-16.64 16.661-43.669-0.010-60.32zM234.656 394.667c-42.742 0-82.923-16.65-113.141-46.88-62.358-62.379-62.358-163.882 0-226.262 30.218-30.208 70.4-46.858 113.141-46.858s82.923 16.651 113.152 46.88c62.368 62.378 62.368 163.883-0.010 226.262-30.219 30.208-70.4 46.858-113.142 46.858z" />
<glyph unicode="&#xe620;" d="M80-16h-21.334c-17.6 0-32 14.4-32 32v394.667c0 17.6 14.4 32 32 32h21.334v-106.666c0-17.6 14.4-32 32-32h225.462c17.6 0 32 14.4 32 32v106.667h35.19l80.683-80.683v-345.984c0-17.6-14.4-32-32-32h-373.334zM188.128 442.667v-90.666c0-4.394 1.76-8.31 4.704-11.296 2.976-2.933 6.891-4.704 11.296-4.704h117.344c4.394 0 8.31 1.771 11.296 4.704 2.944 2.976 4.704 6.89 4.704 11.296v90.666h-149.344zM80 16h352v152c0 17.6-14.4 32-32 32h-288c-17.6 0-32-14.4-32-32v-152z" />
<glyph unicode="&#xe621;" d="M451.274 82.133c0-35.2-28.8-64-64-64h-262.55c-35.2 0-64 28.8-64 64v262.4c0 35.2 28.8 64 64 64h262.538c35.2 0 64-28.8 64-64v-262.4zM173.248 81.621c13.536 13.546 13.536 35.478-0.011 49.024-13.536 13.546-35.477 13.546-49.024 0s-13.546-35.478 0-49.024 35.488-13.536 49.035 0zM148.726 194.827c24.565-0.022 46.582-9.888 62.709-25.974 16.096-16.128 25.963-38.091 25.984-62.645v-0.118c0.032-14.731 12-26.646 26.72-26.613 14.72 0.032 26.645 12 26.613 26.72v0.010c0.010 39.125-15.957 74.784-41.611 100.374-25.621 25.643-61.28 41.568-100.384 41.568-14.731 0-26.666-11.936-26.677-26.656-0.010-14.72 11.925-26.666 26.646-26.666zM148.726 301.493c54.016-0.022 102.688-21.803 138.134-57.173 35.392-35.403 57.216-84.032 57.226-138.080v-0.171c0.032-14.731 12-26.645 26.72-26.613 14.731 0.032 26.645 12 26.613 26.72v0.064c0.010 68.608-27.894 130.923-72.864 175.808-44.938 44.928-107.264 72.779-175.819 72.779-14.731 0-26.666-11.936-26.666-26.666s11.925-26.666 26.656-26.666z" />
<glyph unicode="&#xe622;" d="M263.115 36.437l0.214 1.184 0.288 1.184 11.296 45.056c2.442 12.8 8.086 24.555 16.459 34.346l0.33 0.672 103.541 103.563c14.101 14.112 32.853 21.878 52.8 21.878 6.816 0 13.462-0.97 19.851-2.731v105.109c0 17.578-14.378 31.968-31.978 31.968l-192.022 0.022c0 17.589-14.389 31.978-31.958 31.978h-160.064c-17.578 0-31.979-14.389-31.979-31.978v-330.71c0-17.589 14.4-31.978 31.979-31.978h212.181c-1.75 6.474-2.134 13.44-0.938 20.438zM51.894 309.333c0 8.842 7.157 16 16 16h352c8.832 0 16-7.158 16-16s-7.168-16-16-16h-352c-8.832 0-16 7.168-16 16zM430.123 46.133l0.053-0.053-29.205-29.11c-0.352-0.352-0.768-0.63-1.12-0.971h36.075c17.6 0 31.978 14.389 31.978 31.978v35.936l-37.781-37.781zM471.606 132.885l6.613 6.603c16.661 16.661 16.651 43.659 0 60.341-8.33 8.33-19.264 12.49-30.176 12.49s-21.846-4.171-30.176-12.49l-6.603-6.603 60.341-60.341zM448.981 110.261l-60.341 60.341-70.645-70.698c-6.454-6.442-10.358-14.454-11.786-22.816l-11.541-46.058c-1.514-8.81 3.637-15.040 11.765-15.040 0.971 0 1.974 0.106 3.008 0.267l46.058 11.541c8.373 1.462 16.394 5.334 22.858 11.786l6.603 6.582-0.022 0.022 64.043 64.075z" />
<glyph unicode="&#xe623;" d="M298.358 368.981c6.038-6.037 14.080-9.365 22.603-9.365h66.538l-98.517 99.050v-67.062c0.022-8.534 3.349-16.587 9.376-22.624zM358.741 2.443l-46.23-11.563-1.152-0.214c-2.827-0.49-5.685-0.736-8.49-0.736-13.226 0-25.546 5.589-33.771 15.349-6.048 7.19-9.45 16.245-10.048 25.846h-186.219c-8.832 0-16 7.168-16 16s7.168 16 16 16h191.829l6.699 26.678c1.824 9.611 5.462 18.624 10.688 26.656h-209.216c-8.832 0-16 7.168-16 16s7.168 16 16 16h238.944l75.722 75.723v103.435h-66.538c-17.664 0-33.642 7.168-45.226 18.741-11.584 11.584-18.731 27.584-18.752 45.248v67.061h-200.149c-17.6 0-32-14.4-32-32v-426.666c0-17.6 14.4-32 32-32h298.666c17.6 0 32 14.4 32 32v14.709c-8.565-6.026-18.283-10.25-28.757-12.267zM112.299 348.693c-11.126 7.733-18.432 20.598-18.432 35.168 0 23.637 19.168 42.805 42.805 42.805s42.816-19.168 42.816-42.805c0-14.57-7.306-27.435-18.442-35.168 48.853-10.666 51.722-37.707 52.416-53.803 0.138-3.435-2.389-7.541-5.718-8.416-8.427-2.208-25.398-5.291-71.061-5.291s-62.635 3.083-71.061 5.291c-3.328 0.875-5.877 4.981-5.718 8.416 0.682 16.107 3.541 43.136 52.394 53.803zM72.832 233.792h127.69c8.843 0 16-7.157 16-16s-7.157-16-16-16h-127.691c-8.832 0-16 7.158-16 16s7.168 16 16 16zM381.387 52.139l0.010-0.022-6.603-6.582c-6.454-6.454-14.474-10.346-22.848-11.798l-46.070-11.531c-1.046-0.182-2.038-0.267-3.008-0.267-8.128 0-13.269 6.229-11.765 15.029l11.552 46.070c1.44 8.352 5.322 16.373 11.776 22.816l0.022 0.043 70.635 70.635 60.341-60.341-64.043-64.053zM474.678 145.419l-6.613-6.613-60.341 60.341 6.603 6.603c8.331 8.331 19.264 12.502 30.176 12.502s21.846-4.171 30.176-12.502c16.651-16.672 16.661-43.68 0-60.331z" />
<glyph unicode="&#xe624;" d="M480.971 340.907h-268.661l169.526 29.899c4.768-4.448 11.115-7.221 18.144-7.221 14.731 0 26.666 11.936 26.666 26.666s-11.936 26.667-26.666 26.667c-10.358 0-19.243-5.974-23.659-14.592l-350.432-61.803c-0.277-0.043-0.523-0.16-0.79-0.224-0.768-0.16-1.472-0.426-2.208-0.63-0.043-0.022-0.096-0.022-0.139-0.042-13.078-3.648-22.72-15.478-22.752-29.707v-269.174c0.043-17.12 13.899-30.954 31.029-30.998h449.942c17.13 0.043 30.986 13.877 31.030 30.998v269.174c-0.043 17.109-13.899 30.944-31.029 30.986zM85.334 95.339c0-8.832-7.157-16-16-16s-16 7.158-16 16v160c0 8.843 7.157 16 16 16s16-7.158 16-16v-160zM149.333 95.339c0-8.832-7.157-16-16-16s-16 7.168-16 16v160c0 8.843 7.157 16 16 16s16-7.158 16-16v-160zM213.333 95.339c0-8.832-7.157-16-16-16s-16 7.168-16 16v160c0 8.843 7.157 16 16 16s16-7.158 16-16v-160zM378.688 95.339c-44.192 0-80.022 35.786-80.022 79.978 0 44.224 35.829 80.022 80.022 80.022 44.149 0 79.978-35.798 79.978-80.022 0-44.192-35.829-79.978-79.978-79.978z" />
<glyph unicode="&#xe625;" d="M336 389.333c0-8.843 7.168-16 16-16 8.842 0 16 7.157 16 16s-7.158 16-16 16c-8.832 0-16-7.158-16-16zM432 405.333v-384c0-35.2-28.8-64-64-64h-224c-35.2 0-64 28.8-64 64v384c0 35.2 28.8 64 64 64h224c35.2 0 64-28.8 64-64zM368 437.333h-224c-17.642 0-32-14.357-32-32v-32c0-17.643 14.358-32 32-32h224c17.642 0 32 14.357 32 32v32c0 17.642-14.358 32-32 32zM368 309.333h-224c-17.642 0-32-14.358-32-32v-32c0-17.642 14.358-32 32-32h224c17.642 0 32 14.358 32 32v32c0 17.642-14.358 32-32 32zM352 277.333c8.842 0 16-7.158 16-16s-7.158-16-16-16c-8.832 0-16 7.157-16 16s7.168 16 16 16zM368 181.333h-224c-17.642 0-32-14.358-32-32v-32c0-17.642 14.358-32 32-32h224c17.642 0 32 14.358 32 32v32c0 17.642-14.358 32-32 32zM336 133.333c0-8.832 7.168-16 16-16 8.842 0 16 7.168 16 16s-7.158 16-16 16c-8.832 0-16-7.168-16-16zM272 389.333c0-8.843 7.168-16 16-16 8.842 0 16 7.157 16 16s-7.158 16-16 16c-8.832 0-16-7.158-16-16zM272 261.333c0-8.843 7.168-16 16-16 8.842 0 16 7.157 16 16s-7.158 16-16 16c-8.832 0-16-7.158-16-16zM272 133.333c0-8.832 7.168-16 16-16 8.842 0 16 7.168 16 16s-7.158 16-16 16c-8.832 0-16-7.168-16-16zM144 373.333h80c8.843 0 16 7.157 16 16s-7.157 16-16 16h-80c-8.843 0-16-7.158-16-16s7.157-16 16-16zM144 245.333h80c8.843 0 16 7.157 16 16s-7.157 16-16 16h-80c-8.843 0-16-7.158-16-16s7.157-16 16-16zM144 117.333h80c8.843 0 16 7.168 16 16s-7.157 16-16 16h-80c-8.843 0-16-7.168-16-16s7.157-16 16-16z" />
<glyph unicode="&#xe626;" d="M348.192 356.267c-6.016 6.037-9.354 14.091-9.376 22.624v67.072l98.517-99.061h-66.538c-8.522 0-16.565 3.338-22.603 9.365zM501.334 218.709v-152.896c0-17.6-14.4-32-32-32h-32v-21.11c0-17.6-14.4-32-32-32h-298.666c-17.6 0-32 14.4-32 32v21.11h-32c-17.6 0-32 14.4-32 32v152.896c0 17.6 14.4 32.011 32 32.011h32v163.243c0 17.6 14.4 32 32 32h200.139v-67.061c0.022-17.664 7.168-33.664 18.752-45.248 11.584-11.574 27.563-18.742 45.226-18.742h66.55v-64.192h32c17.6 0 32-14.411 32-32.011zM405.334 34.037c0 8.832-7.168 16-16 16h-266.666c-8.843 0-16-7.168-16-16s7.157-16 16-16h266.666c8.832 0 16 7.168 16 16zM405.334 118.272c0 8.832-7.168 16-16 16h-266.666c-8.843 0-16-7.168-16-16s7.157-16 16-16h266.666c8.832 0 16 7.168 16 16zM469.334 218.72h-426.666v-152.906h32v122.005h362.666v-122.005h32v152.906z" />
<glyph unicode="&#xe627;" d="M96 80.416v173.771c0 8.832 6.4 19.211 14.304 23.178l131.392 65.92c7.904 3.958 20.704 3.958 28.608 0l131.392-65.92c7.894-3.968 14.304-14.346 14.304-23.178v-173.771h-61.334v48c0 4.214-1.707 8.331-4.683 11.317s-7.104 4.683-11.317 4.683h-32c-4.214 0-8.331-1.707-11.317-4.683s-4.683-7.104-4.683-11.317v-48h-194.667zM224.65 225.056c-2.976 2.976-7.104 4.683-11.317 4.683v0.011h-48c-4.214 0-8.331-1.707-11.317-4.683s-4.683-7.104-4.683-11.318v-21.334c0-4.214 1.707-8.331 4.683-11.317s7.104-4.683 11.317-4.683l48-0.010c4.214 0 8.331 1.707 11.317 4.683s4.683 7.104 4.683 11.317v21.334c0 4.214-1.707 8.331-4.683 11.318zM357.984 225.056c-2.976 2.976-7.104 4.683-11.317 4.683v0.011h-48c-4.214 0-8.33-1.707-11.317-4.683s-4.683-7.104-4.683-11.318v-21.334c0-4.214 1.707-8.331 4.683-11.317s7.104-4.683 11.317-4.683l48-0.010c4.214 0 8.33 1.707 11.317 4.683s4.683 7.115 4.683 11.317v21.334c0 4.214-1.707 8.331-4.683 11.318z" />
<glyph unicode="&#xe628;" d="M29.334-4.928v344.459c0 8.832 6.4 19.21 14.304 23.178l198.059 65.92c7.904 3.958 20.693 3.958 28.608 0l198.070-65.92c7.894-3.968 14.293-14.346 14.293-23.178v-344.459h-194.667v48c0 4.214-1.707 8.33-4.683 11.317-2.966 2.976-7.094 4.683-11.307 4.683h-32c-4.214 0-8.331-1.707-11.317-4.683s-4.683-7.104-4.683-11.317v-48h-194.678zM157.984 139.712c-2.976 2.976-7.104 4.683-11.317 4.683v0.010h-48c-4.213 0-8.331-1.707-11.317-4.683s-4.683-7.104-4.683-11.317v-21.334c0-4.214 1.707-8.331 4.683-11.317s7.104-4.683 11.317-4.683l48-0.010c4.214 0 8.331 1.707 11.317 4.683s4.683 7.104 4.683 11.317v21.334c0 4.214-1.707 8.33-4.683 11.317zM291.317 139.712c-2.976 2.976-7.104 4.683-11.317 4.683v0.010h-48.011c-4.214 0-8.331-1.707-11.317-4.683s-4.683-7.104-4.683-11.317v-21.334c0-4.214 1.707-8.331 4.683-11.317s7.104-4.683 11.317-4.683l48.011-0.010c4.214 0 8.331 1.707 11.317 4.683s4.683 7.104 4.683 11.317v21.334c0 4.214-1.707 8.33-4.683 11.317zM424.651 139.712c-2.976 2.976-7.104 4.683-11.317 4.683v0.010h-48.010c-4.214 0-8.33-1.707-11.317-4.683s-4.683-7.104-4.683-11.317v-21.334c0-4.214 1.707-8.331 4.683-11.317s7.104-4.683 11.317-4.683l48.010-0.010c4.214 0 8.33 1.707 11.317 4.683s4.683 7.104 4.683 11.317v21.334c0 4.214-1.707 8.33-4.683 11.317zM157.984 225.056c-2.976 2.976-7.104 4.683-11.317 4.683v0.011h-48c-4.213 0-8.331-1.707-11.317-4.683s-4.683-7.104-4.683-11.318v-21.334c0-4.214 1.707-8.331 4.683-11.317s7.104-4.683 11.317-4.683l48-0.010c4.214 0 8.331 1.707 11.317 4.683s4.683 7.104 4.683 11.317v21.334c0 4.214-1.707 8.331-4.683 11.318zM157.984 310.4c-2.976 2.976-7.104 4.683-11.317 4.683v0.011h-48c-4.213 0-8.331-1.707-11.317-4.683s-4.683-7.104-4.683-11.317v-21.334c0-4.213 1.707-8.33 4.683-11.317s7.104-4.683 11.317-4.683l48-0.010c4.214 0 8.331 1.707 11.317 4.683s4.683 7.104 4.683 11.317v21.333c0 4.214-1.707 8.331-4.683 11.317zM291.317 310.4c-2.976 2.976-7.104 4.683-11.317 4.683v0.011h-48.011c-4.214 0-8.331-1.707-11.317-4.683s-4.683-7.104-4.683-11.317v-21.334c0-4.213 1.707-8.33 4.683-11.317s7.104-4.683 11.317-4.683l48.011-0.010c4.214 0 8.331 1.707 11.317 4.683s4.683 7.104 4.683 11.317v21.333c0 4.214-1.707 8.331-4.683 11.317zM424.651 310.4c-2.976 2.976-7.104 4.683-11.317 4.683v0.011h-48.010c-4.214 0-8.33-1.707-11.317-4.683s-4.683-7.104-4.683-11.317v-21.334c0-4.213 1.707-8.33 4.683-11.317s7.104-4.683 11.317-4.683l48.010-0.010c4.214 0 8.33 1.707 11.317 4.683s4.683 7.104 4.683 11.317v21.333c0 4.214-1.707 8.331-4.683 11.317zM291.317 225.056c-2.976 2.976-7.104 4.683-11.317 4.683v0.011h-48c-4.214 0-8.331-1.707-11.317-4.683s-4.683-7.104-4.683-11.318v-21.334c0-4.214 1.707-8.331 4.683-11.317s7.104-4.683 11.317-4.683l48-0.010c4.214 0 8.331 1.707 11.317 4.683s4.683 7.104 4.683 11.317v21.334c0 4.214-1.707 8.331-4.683 11.318zM424.651 225.056c-2.976 2.976-7.104 4.683-11.317 4.683v0.011h-48c-4.214 0-8.33-1.707-11.317-4.683s-4.683-7.104-4.683-11.318v-21.334c0-4.214 1.707-8.331 4.683-11.317s7.104-4.683 11.317-4.683l48-0.010c4.214 0 8.33 1.707 11.317 4.683s4.683 7.104 4.683 11.317v21.334c0 4.214-1.707 8.331-4.683 11.318z" />
<glyph unicode="&#xe629;" d="M96 80v234.667c0 17.674 14.326 32 32 32h256c17.675 0 32-14.326 32-32v-234.667h-61.334v48c0 4.214-1.707 8.33-4.683 11.317s-7.104 4.683-11.317 4.683h-32c-4.214 0-8.33-1.707-11.317-4.683s-4.683-7.104-4.683-11.317v-48h-194.667zM224.65 224.64c-2.976 2.976-7.104 4.683-11.317 4.683v0.011h-48c-4.214 0-8.331-1.707-11.317-4.683s-4.683-7.104-4.683-11.318v-21.334c0-4.214 1.707-8.33 4.683-11.317s7.104-4.683 11.317-4.683l48-0.010c4.214 0 8.331 1.707 11.317 4.683s4.683 7.104 4.683 11.317v21.334c0 4.214-1.707 8.331-4.683 11.318zM357.984 224.64c-2.976 2.976-7.104 4.683-11.317 4.683v0.011h-48c-4.214 0-8.33-1.707-11.317-4.683s-4.683-7.104-4.683-11.318v-21.334c0-4.214 1.707-8.33 4.683-11.317s7.104-4.683 11.317-4.683l48-0.010c4.214 0 8.33 1.707 11.317 4.683s4.683 7.104 4.683 11.317v21.334c0 4.214-1.707 8.331-4.683 11.318zM224.65 309.973c-2.976 2.976-7.104 4.683-11.317 4.683v0.010h-48c-4.214 0-8.331-1.707-11.317-4.683s-4.683-7.104-4.683-11.317v-21.333c0-4.214 1.707-8.331 4.683-11.317s7.104-4.683 11.317-4.683l48-0.011c4.214 0 8.331 1.707 11.317 4.683s4.683 7.104 4.683 11.317v21.334c0 4.213-1.707 8.33-4.683 11.317zM357.984 309.973c-2.976 2.976-7.104 4.683-11.317 4.683v0.010h-48c-4.214 0-8.33-1.707-11.317-4.683s-4.683-7.104-4.683-11.317v-21.333c0-4.214 1.707-8.331 4.683-11.317s7.104-4.683 11.317-4.683l48-0.011c4.214 0 8.33 1.707 11.317 4.683s4.683 7.104 4.683 11.317v21.334c0 4.213-1.707 8.33-4.683 11.317z" />
<glyph unicode="&#xe62a;" d="M74.666 127.467h362.666v-127.466c0-17.6-14.4-32-32-32h-298.666c-17.6 0-32 14.4-32 32v127.466zM132.864 13.109c0-6.262 4.096-10.486 10.486-10.486s10.486 4.224 10.486 10.486v24.95h23.285c20.341 0 31.989 12.416 31.989 29.163 0 20.469-14.197 29.173-31.851 29.173h-32.107c-7.424 0-12.278-2.944-12.278-12.288v-70.998zM153.834 80.277h17.398c10.368 0 16.886-3.829 16.886-13.056 0-7.925-6.272-13.046-14.709-13.046h-19.573v26.101zM222.965 13.109c0-6.262 4.096-10.486 10.486-10.486s10.486 4.224 10.486 10.486v24.95h23.285c20.341 0 31.978 12.416 31.978 29.163 0 20.469-14.187 29.173-31.851 29.173h-32.106c-7.424 0-12.278-2.944-12.278-12.288v-70.998zM243.946 80.277h17.398c10.358 0 16.885-3.829 16.885-13.056 0-7.925-6.272-13.046-14.709-13.046h-19.573v26.101zM335.584 13.109c0-6.262 4.106-10.486 10.496-10.486s10.496 4.224 10.496 10.486v65.632h19.808c6.016 0 10.88 3.062 10.88 8.822s-4.853 8.832-10.88 8.832h-60.63c-6.016 0-10.88-3.072-10.88-8.832s4.853-8.822 10.88-8.822h19.808v-65.632zM370.795 327.616c-17.664 0-33.654 7.168-45.226 18.742-11.584 11.584-18.731 27.584-18.752 45.248v67.062h-200.149c-17.6 0-32-14.4-32-32v-267.2h362.666v168.15h-66.538zM348.192 368.981c6.038-6.037 14.070-9.365 22.603-9.365h66.538l-98.517 99.050v-67.062c0.010-8.534 3.339-16.587 9.376-22.624z" />
<glyph unicode="&#xe62b;" d="M390.837 233.419l-251.69 152.928c-16.245 9.408-29.558-0.107-29.558-21.12v-303.765c0-21.034 13.312-30.528 29.558-21.142l251.69 152.896c15.435 11.040 15.435 29.142 0 40.203z" />
<glyph unicode="&#xe62c;" d="M458.954 53.92c12.438 12.459 12.469 32.81 0 45.269l-62.346 62.379c-12.469 12.438-32.843 12.438-45.269-0.022l-26.058-26.048c-12.438-12.459-32.81-12.459-45.248 0l-101.834 101.814c-12.438 12.458-12.438 32.832 0 45.269l2.282 2.272 23.776 23.776c12.448 12.459 12.458 32.832 0.011 45.269l-62.379 62.378c-12.458 12.438-32.81 12.438-45.258-0.022l-11.787-11.776c-76.501-76.501-42.773-173.248 71.669-287.69l3.061-2.912c114.422-114.421 211.168-148.17 287.669-71.67l11.712 11.712z" />
<glyph unicode="&#xe62d;" d="M74.666 127.467h362.666v-127.466c0-17.6-14.4-32-32-32h-298.666c-17.6 0-32 14.4-32 32v127.466zM131.776 13.109c0-6.262 4.096-10.486 10.486-10.486s10.486 4.224 10.486 10.486v24.95h23.286c20.341 0 31.989 12.416 31.989 29.163 0 20.469-14.197 29.173-31.851 29.173h-32.107c-7.424 0-12.278-2.944-12.278-12.288v-70.998zM152.757 80.277h17.398c10.368 0 16.886-3.829 16.886-13.056 0-7.925-6.272-13.046-14.709-13.046h-19.573v26.101zM221.888 16.576c0-9.344 4.864-12.277 12.278-12.277h25.205c28.010 0 44.256 16.885 44.256 46.048 0 36.086-20.981 46.058-43.872 46.058h-25.578c-7.424 0-12.278-2.944-12.278-12.288v-67.541zM242.869 79.509h17.525c15.36 0 22.25-10.998 22.25-29.163 0-14.197-5.376-29.163-22.123-29.163h-17.654v58.325zM319.541 13.109c0-6.262 4.106-10.486 10.496-10.486s10.474 4.224 10.474 10.486v28.789h31.733c5.504 0 9.856 1.536 9.856 8.053 0 6.528-4.352 8.064-9.856 8.064h-31.733v21.493h37.483c6.144 0 10.624 1.792 10.624 8.448s-4.48 8.448-10.624 8.448h-46.166c-7.435 0-12.288-2.944-12.288-12.288v-71.008zM370.795 327.616c-17.664 0-33.654 7.168-45.226 18.742-11.584 11.584-18.731 27.584-18.752 45.248v67.062h-200.149c-17.6 0-32-14.4-32-32v-267.2h362.666v168.15h-66.538zM348.192 368.981c6.038-6.037 14.070-9.365 22.603-9.365h66.538l-98.517 99.050v-67.062c0.010-8.534 3.339-16.587 9.376-22.624z" />
<glyph unicode="&#xe62e;" d="M206.72 69.333c0-17.6-14.4-32-32-32h-62.72c-17.6 0-32 14.4-32 32v288c0 17.6 14.4 32 32 32h62.72c17.6 0 32-14.4 32-32v-288zM432 357.333c0 17.6-14.4 32-32 32h-62.72c-17.6 0-32-14.4-32-32v-288c0-17.6 14.4-32 32-32h62.72c17.6 0 32 14.4 32 32v288z" />
<glyph unicode="&#xe62f;" d="M322.678 101.792c-1.376 5.558-2.091 11.317-2.091 17.142 0 39.296 31.894 71.254 71.104 71.254 1.685 0 3.328-0.128 5.002-0.245-15.894 18.538-42.784 35.264-88.576 45.27 23.818 16.534 39.445 44.042 39.445 75.21 0 50.56-41.002 91.552-91.552 91.552-50.56 0-91.552-40.992-91.552-91.552 0-31.168 15.626-58.667 39.424-75.21-45.792-10.006-72.672-26.731-88.576-45.27 1.653 0.128 3.296 0.245 4.971 0.245 39.222 0 71.126-31.957 71.126-71.254 0-5.834-0.714-11.606-2.090-17.142 4.48-3.040 8.416-6.454 11.989-10.144 15.744-0.522 33.738-0.832 54.709-0.832 20.96 0 38.933 0.31 54.666 0.832 3.574 3.69 7.52 7.104 12 10.144zM120.278 158.187c21.611 0 39.126-17.6 39.126-39.253 0-13.397-6.678-25.184-16.853-32.288 44.64-9.792 47.254-34.624 47.882-49.376 0.138-3.147-2.186-6.912-5.226-7.733-7.702-2.016-23.2-4.832-64.928-4.832-41.707 0-57.206 2.816-64.906 4.832-3.040 0.81-5.355 4.587-5.216 7.733 0.64 14.752 3.254 39.584 47.861 49.376-10.165 7.104-16.832 18.89-16.832 32.288 0 21.654 17.504 39.254 39.094 39.254zM391.69 158.187c21.6 0 39.125-17.6 39.125-39.253 0-13.397-6.678-25.184-16.853-32.288 44.63-9.792 47.254-34.624 47.872-49.376 0.149-3.147-2.176-6.912-5.216-7.733-7.702-2.016-23.2-4.832-64.928-4.832-41.707 0-57.205 2.816-64.918 4.832-3.040 0.81-5.344 4.587-5.205 7.733 0.63 14.752 3.253 39.584 47.861 49.376-10.166 7.104-16.842 18.89-16.842 32.288 0 21.654 17.504 39.254 39.104 39.254z" />
<glyph unicode="&#xe630;" d="M86.336 125.643c-25.558 2.283-40.086 5.259-49.504 7.723-7.125 1.877-12.544 10.646-12.224 18.016 1.482 34.421 7.606 92.246 112.075 115.062-23.797 16.534-39.424 44.043-39.424 75.211 0 50.56 40.982 91.552 91.552 91.552 23.477 0 44.822-8.906 61.024-23.435-53.365-13.654-92.992-62.005-92.992-119.573 0-21.088 5.398-41.482 15.296-59.456-64.459-28-81.024-73.258-85.802-105.099zM280.394 381.749c-50.571 0-91.552-40.992-91.552-91.552 0-31.178 15.616-58.677 39.424-75.21-104.469-22.816-110.592-80.651-112.075-115.072-0.32-7.36 5.099-16.139 12.224-18.005 18.016-4.714 54.315-11.317 151.989-11.317l2.378 0.010c-1.002 4.086-1.685 8.288-1.685 12.683 0 29.462 23.872 53.334 53.334 53.334h9.834v9.824c0 24.608 16.747 45.11 39.392 51.264-13.707 6.827-30.442 12.757-51.147 17.28 23.808 16.534 39.435 44.032 39.435 75.211-0.010 50.56-41.014 91.552-91.552 91.552zM460.726 109.963h-36.48v36.49c0 14.731-11.936 26.666-26.666 26.666s-26.666-11.936-26.666-26.666v-36.49h-36.502c-14.731 0-26.666-11.936-26.666-26.666s11.936-26.666 26.666-26.666h36.502v-36.502c0-14.731 11.936-26.666 26.666-26.666s26.666 11.936 26.666 26.666v36.502h36.48c14.731 0 26.666 11.936 26.666 26.666s-11.936 26.666-26.666 26.666z" />
<glyph unicode="&#xe631;" d="M353.226 114.229h9.834v9.834c0 29.462 23.872 53.334 53.334 53.334 14.582 0 27.776-5.877 37.397-15.349v229.579c0 17.578-14.389 31.978-31.978 31.978l-192.022 0.022c0 17.578-14.4 31.978-31.978 31.978h-160.054c-17.578 0-31.968-14.389-31.968-31.978v-330.709c0-17.6 14.39-31.978 31.968-31.978h262.134c0.022 29.44 23.882 53.291 53.334 53.291zM37.792 354.272c0 8.842 7.157 16 16 16h352c8.832 0 16-7.158 16-16s-7.168-16-16-16h-352c-8.843 0-16 7.158-16 16zM506.208 60.896c0-14.731-11.936-26.666-26.666-26.666h-36.48v-36.502c0-14.731-11.936-26.666-26.666-26.666s-26.666 11.936-26.666 26.666v36.502h-36.502c-14.731 0-26.666 11.936-26.666 26.666s11.936 26.666 26.666 26.666h36.502v36.502c0 14.731 11.936 26.666 26.666 26.666s26.666-11.936 26.666-26.666v-36.502h36.48c14.731 0 26.666-11.936 26.666-26.666z" />
<glyph unicode="&#xe632;" d="M238.475 109.024c0 29.462 23.872 53.334 53.333 53.334h9.834v9.824c0 24.608 16.736 45.099 39.392 51.264-13.717 6.827-30.432 12.758-51.147 17.28 23.819 16.534 39.445 44.042 39.445 75.21 0 50.56-41.002 91.552-91.552 91.552-50.56 0-91.552-40.992-91.552-91.552 0-31.168 15.626-58.666 39.424-75.21-104.459-22.816-110.582-80.651-112.075-115.083-0.309-7.349 5.099-16.139 12.224-18.005 18.016-4.726 54.314-11.328 151.978-11.328 0.821 0 1.558 0.010 2.368 0.010-0.992 4.096-1.674 8.31-1.674 12.704zM418.123 135.691h-36.48v36.49c0 14.731-11.936 26.666-26.666 26.666s-26.666-11.936-26.666-26.666v-36.49h-36.502c-14.731 0-26.666-11.936-26.666-26.666s11.947-26.666 26.666-26.666h36.502v-36.502c0-14.731 11.936-26.666 26.666-26.666s26.666 11.936 26.666 26.666v36.502h36.48c14.731 0 26.666 11.936 26.666 26.666s-11.936 26.666-26.666 26.666z" />
<glyph unicode="&#xe633;" d="M448.010 304h31.99c17.6 0 32 14.411 32 32v53.334c0 17.6-14.4 32-32 32h-31.99v-117.334zM448.010 165.323h31.99c17.6 0 32 14.421 32 32v53.334c0 17.6-14.4 32-32 32h-31.99v-117.334zM394.666 469.333h-362.666c-17.6 0-32-14.4-32-32v-448c0-17.6 14.4-32 32-32h344.235c-4.587 7.872-7.392 16.906-7.392 26.666v9.834h-9.834c-29.462 0-53.334 23.872-53.334 53.334s23.872 53.334 53.334 53.334h9.834v9.824c0 29.462 23.872 53.334 53.334 53.334 1.546 0 2.986-0.32 4.49-0.448v274.123c0 17.6-14.4 32-32 32zM330.528 191.339c-13.909-3.648-41.888-8.726-117.184-8.726-75.328 0-103.306 5.088-117.206 8.726-5.493 1.44-9.674 8.214-9.43 13.877 1.141 26.55 5.867 71.147 86.442 88.747-18.358 12.747-30.411 33.963-30.411 58.005 0 38.987 31.606 70.603 70.603 70.603 38.987 0 70.592-31.616 70.592-70.603 0-24.032-12.043-45.258-30.411-58.005 80.555-17.589 85.28-62.197 86.432-88.747 0.235-5.675-3.936-12.448-9.43-13.877zM485.334 73.835h-36.49v36.49c0 14.731-11.936 26.666-26.666 26.666s-26.666-11.936-26.666-26.666v-36.49h-36.502c-14.731 0-26.666-11.936-26.666-26.666s11.936-26.666 26.666-26.666h36.502v-36.502c0-14.731 11.936-26.666 26.666-26.666s26.666 11.936 26.666 26.666v36.502h36.49c14.731 0 26.666 11.936 26.666 26.666s-11.936 26.666-26.666 26.666z" />
<glyph unicode="&#xe634;" d="M451.274 82.133c0-35.2-28.8-64-64-64h-262.55c-35.2 0-64 28.8-64 64v262.4c0 35.2 28.8 64 64 64h262.538c35.2 0 64-28.8 64-64v-262.4zM185.376 257.813c0-24.032 12.054-45.248 30.432-58.006-80.576-17.579-90.198-52.394-91.338-78.944-0.234-5.675 3.936-12.448 9.43-13.888 13.899-3.648 46.784-8.726 122.112-8.726 75.328 0 108.214 5.088 122.101 8.726 5.504 1.44 9.675 8.214 9.44 13.888-1.142 26.55-10.774 61.365-91.339 78.944 18.368 12.747 30.411 33.963 30.411 58.005 0 38.987-31.606 70.603-70.603 70.603s-70.645-31.616-70.645-70.603z" />
<glyph unicode="&#xe635;" d="M415.232 151.168c-13.238 5.589-29.365 7.541-46.101 4.598-37.718-6.646-64.138-35.563-59.019-64.587 5.11-29.002 39.819-47.125 77.546-40.469 32.587 5.75 56.693 28.118 59.36 52.789 0 0 0.245 6.016 0.224 6.624v224.779l-0.043 13.418v56.16c0 4.736-2.080 9.205-5.717 12.245-3.637 3.050-8.384 4.33-13.067 3.498l-244.661-43.125c-7.659-1.355-13.216-7.978-13.216-15.765v-253.312c-13.238 5.589-29.365 7.541-46.102 4.598-37.718-6.646-64.138-35.563-59.019-64.587 5.109-29.002 39.819-47.125 77.546-40.469 32.587 5.75 56.683 28.118 59.35 52.789 0 0 0.256 6.016 0.224 6.624v224.79l212.661 37.504 0.032-178.102z" />
<glyph unicode="&#xe636;" d="M464 392.533v-267.445l-90.592 54.325c-6.976 3.99-14.646 6.101-22.187 6.101-23.498 0-41.206-19.274-41.206-44.832v-20.202h-66.858c-32.341 0-58.645-26.304-58.666-58.635h-136.512c-17.578 0-31.979 14.389-31.979 31.978v330.709c0 17.579 14.39 31.978 31.979 31.978h160.054c17.578 0 31.978-14.389 31.978-31.978v-0.022h192.011c17.6-0.010 31.978-14.4 31.978-31.978zM64 339.168h352c8.832 0 16 7.158 16 16s-7.168 16-16 16h-352c-8.843 0-16-7.157-16-16s7.168-16 16-16zM351.211 153.504c-5.418 0-9.206-4.789-9.206-12.832v-52.202h-98.858c-14.731 0-26.666-11.936-26.666-26.666s11.936-26.666 26.666-26.666h98.858v-52.128c0-8.043 3.786-12.842 9.226-12.842 1.92 0 4.043 0.608 6.293 1.877l132.374 79.339c8.149 5.75 8.149 15.147 0 20.875l-132.374 79.36c-2.25 1.28-4.384 1.888-6.315 1.888z" />
<glyph unicode="&#xe637;" d="M197.333 213.333c0-14.731-11.936-26.666-26.667-26.666s-26.666 11.936-26.666 26.666 11.936 26.667 26.666 26.667 26.666-11.936 26.666-26.667zM256 240c-14.731 0-26.666-11.936-26.666-26.667s11.936-26.666 26.666-26.666 26.666 11.936 26.666 26.666-11.936 26.667-26.666 26.667zM341.334 240c-14.731 0-26.666-11.936-26.666-26.667s11.936-26.666 26.666-26.666 26.666 11.936 26.666 26.666-11.936 26.667-26.666 26.667z" />
<glyph unicode="&#xe638;" d="M433.056 438.304v-449.942c-0.043-17.13-13.877-30.986-30.986-31.029h-292.118c-17.12 0.043-30.954 13.898-30.998 31.029v449.942c0.032 17.131 13.867 30.987 30.998 31.030h292.118c17.11-0.043 30.944-13.899 30.986-31.030zM380.384 78.901v332.886c0 2.336-1.856 4.202-4.224 4.213h-240.384c-2.293-0.010-4.149-1.877-4.171-4.256v-332.875c0.022-2.325 1.877-4.192 4.224-4.202h240.374c2.325 0.010 4.16 1.866 4.181 4.235zM255.552 42.667c-14.731 0-26.667-11.936-26.667-26.666s11.936-26.666 26.666-26.666 26.666 11.936 26.666 26.666-11.936 26.666-26.666 26.666z" />
<glyph unicode="&#xe639;" d="M122.666 293.333h266.666c14.731 0 26.666 11.936 26.666 26.666s-11.936 26.667-26.666 26.667h-266.666c-14.731 0-26.666-11.936-26.666-26.667s11.936-26.666 26.666-26.666zM389.334 240h-266.666c-14.731 0-26.666-11.936-26.666-26.667s11.936-26.666 26.666-26.666h266.666c14.731 0 26.666 11.936 26.666 26.666s-11.936 26.667-26.666 26.667zM389.334 133.333h-266.666c-14.731 0-26.666-11.936-26.666-26.666s11.936-26.666 26.666-26.666h266.666c14.731 0 26.666 11.936 26.666 26.666s-11.936 26.666-26.666 26.666z" />
<glyph unicode="&#xe63a;" d="M96 270.507c0 88.362 71.637 160 160 160s160-71.637 160-160c0-118.134-160-274.347-160-274.347s-160 156.214-160 274.347zM256 350.507c-44.192 0-80-35.808-80-80s35.808-80 80-80 80 35.808 80 80-35.808 80-80 80z" />
<glyph unicode="&#xe63b;" d="M174.24 186.635v-52.128c0-8.043 3.808-12.853 9.238-12.853 1.92 0 4.053 0.608 6.282 1.877l132.374 79.35c8.149 5.75 8.149 15.147 0 20.875l-132.374 79.36c-2.24 1.28-4.374 1.888-6.293 1.888-5.429 0-9.226-4.79-9.226-12.832v-52.203h-98.859c-14.73 0-26.666-11.936-26.666-26.667s11.936-26.666 26.666-26.666h98.859zM404.64 437.333h-272.043c-32.341 0-58.645-26.304-58.645-58.645v-47.030c0-14.731 11.936-26.666 26.666-26.666s26.666 11.936 26.666 26.666v20.352c0 17.589 14.379 31.989 31.978 31.989h218.709c17.589 0 31.978-14.4 31.978-31.978v-277.376c0-17.579-14.389-31.978-31.978-31.978h-218.709c-17.589 0-31.978 14.4-31.978 31.978v20.352c0 14.731-11.936 26.666-26.666 26.666s-26.666-11.936-26.666-26.666v-47.019c0-32.331 26.314-58.645 58.645-58.645h272.043c32.331 0 58.645 26.315 58.645 58.645v330.709c0 32.341-26.315 58.646-58.645 58.646z" />
<glyph unicode="&#xe63c;" d="M456.416 227.84c-4.438 19.157-21.152 32.096-39.904 32.832-29.28 59.115-90.070 99.851-160.512 99.872-70.442-0.010-131.221-40.757-160.501-99.861-18.763-0.726-35.498-13.674-39.936-32.842-3.382-14.624-5.44-30.198-5.44-46.464 0-16.277 2.048-31.861 5.45-46.507 4.438-19.168 21.174-32.106 39.936-32.832 3.712-0.149 7.466 0.022 11.264 0.896 1.824 0.416 3.488 1.142 5.184 1.771 5.195 1.942 9.792 4.768 13.718 8.33-10.742 20.438-16.885 43.659-16.885 68.341 0 5.75 0.406 11.402 1.056 16.981 0.171 1.514 0.459 2.976 0.683 4.48 0.618 4.16 1.344 8.267 2.304 12.298 0.352 1.462 0.736 2.901 1.12 4.352 1.13 4.224 2.442 8.374 3.936 12.427 0.374 1.024 0.725 2.059 1.12 3.072 1.984 5.024 4.171 9.952 6.666 14.698 6.944 13.206 15.765 25.269 26.24 35.755 26.688 26.656 63.381 43.104 104.085 43.115 40.693-0.011 77.408-16.459 104.096-43.104 10.464-10.474 19.296-22.549 26.24-35.754-0.010 0-0.022 0-0.022 0 2.528-4.81 4.747-9.803 6.752-14.901 0.33-0.853 0.63-1.718 0.95-2.582 1.558-4.214 2.901-8.523 4.086-12.907 0.363-1.354 0.726-2.709 1.056-4.075 0.971-4.106 1.717-8.277 2.346-12.502 0.214-1.472 0.502-2.901 0.661-4.384 0.651-5.579 1.056-11.243 1.056-17.002-0.010-24.704-6.144-47.894-16.885-68.31 3.925-3.563 8.534-6.421 13.717-8.33 1.707-0.651 3.37-1.354 5.205-1.771 3.786-0.875 7.541-1.046 11.253-0.896 18.762 0.726 35.498 13.664 39.936 32.842 3.382 14.635 5.44 30.197 5.44 46.464s-2.070 31.84-5.472 46.496zM371.296 181.419c0-63.676-51.62-115.296-115.296-115.296s-115.296 51.62-115.296 115.296c0 63.676 51.62 115.296 115.296 115.296 63.676 0 115.296-51.62 115.296-115.296z" />
<glyph unicode="&#xe63d;" d="M253.056 127.413c0.202-2.454 0.341-4.906 0.341-7.36 0.032-23.104-8.896-46.454-26.538-64.085l-40.886-40.896c-17.632-17.632-40.992-26.55-64.096-26.517-23.104-0.032-46.453 8.885-64.106 26.507l-0.032 0.032c-17.632 17.642-26.549 41.014-26.528 64.128-0.021 23.115 8.896 46.464 26.538 64.106l0.011 0.022 40.864 40.832c17.632 17.654 41.002 26.592 64.118 26.56 2.442 0 4.906-0.149 7.35-0.341l-3.36-3.36c-14.090-14.091-19.435-33.558-16.192-51.798-5.162-1.781-10.026-4.598-14.208-8.757v-0.010l-40.853-40.842c-7.338-7.36-10.901-16.768-10.933-26.421 0.032-9.642 3.606-19.050 10.933-26.421 7.35-7.328 16.746-10.89 26.4-10.912 9.654 0.032 19.050 3.594 26.411 10.912l40.864 40.875c4.16 4.171 6.965 9.034 8.746 14.197 18.24-3.253 37.718 2.101 51.808 16.202l3.35 3.349zM454.25 411.552l-0.022 0.022c-17.632 17.632-40.992 26.57-64.118 26.538-23.104 0.032-46.464-8.896-64.106-26.55l-40.864-40.864c-17.654-17.632-26.57-41.003-26.55-64.106 0-2.442 0.149-4.896 0.341-7.339l3.339 3.339c14.101 14.101 33.579 19.445 51.819 16.202 1.781 5.152 4.598 10.016 8.747 14.197l40.864 40.864c7.36 7.339 16.747 10.891 26.4 10.922 9.642-0.032 19.050-3.594 26.432-10.933l-0.022 0.010c7.339-7.349 10.901-16.757 10.923-26.41-0.022-9.643-3.594-19.040-10.923-26.4h0.010l-40.864-40.854c-4.182-4.17-9.056-6.986-14.219-8.757 3.253-18.24-2.091-37.707-16.192-51.798l-3.36-3.36c2.442-0.202 4.896-0.352 7.339-0.341 23.125-0.032 46.486 8.896 64.139 26.56v-0.011l40.875 40.864c17.642 17.632 26.56 40.992 26.538 64.106 0.032 23.093-8.885 46.464-26.528 64.096zM227.072 146.699l95.552 95.563c10.421 10.411 10.421 27.296 0 37.707s-27.307 10.421-37.707 0l-95.552-95.563c-10.422-10.421-10.422-27.307 0-37.707 10.411-10.421 27.296-10.421 37.707 0z" />
<glyph unicode="&#xe63e;" d="M459.456 267.264l-26.933 18.528c-2.688 1.856-5.792 2.816-9.067 2.816h-56.416v46.678l9.024 23.317c0.726 1.877 1.088 3.765 1.088 5.781v37.046c0 4.213-1.707 8.33-4.683 11.317s-7.104 4.682-11.317 4.682h-50.507c-6.378 0-12.128-3.765-14.666-9.61-0.010-0.011-2.304-5.269-6.112-13.91-11.413-25.877-36.554-82.090-53.258-114.88-4.298-8.448-10.582-14.998-18.133-20.31-11.274-7.968-25.398-12.682-36.608-15.114-0.544-0.118-0.97-0.171-1.504-0.278v12.138c0 4.214-1.707 8.33-4.683 11.317s-7.104 4.683-11.317 4.683h-102.763c-4.213 0-8.331-1.707-11.318-4.683s-4.682-7.104-4.682-11.317v-205.728c0-4.214 1.706-8.331 4.682-11.317s7.104-4.683 11.318-4.683h102.752c4.214 0 8.331 1.707 11.317 4.683s4.683 7.104 4.683 11.317v17.44h50.858l40.363-30.24c2.795-2.091 6.101-3.2 9.589-3.2h129.664c3.765 0 7.445 1.354 10.336 3.776l39.563 33.44c3.574 3.019 5.664 7.531 5.664 12.224v170.902c0.010 5.248-2.613 10.218-6.933 13.184zM434.4 90.592l-29.418-24.864h-118.486l-40.363 30.24c-2.794 2.091-6.101 3.2-9.589 3.2h-56.192v111.594c6.549 1.088 14.56 2.805 23.328 5.622 10.592 3.434 22.208 8.458 33.152 16.138 10.923 7.648 21.216 18.112 28.277 31.979 11.606 22.805 26.582 55.296 38.742 82.24 7.232 16.022 13.376 29.93 17.226 38.678h24.064v-18.048l-9.024-23.317c-0.726-1.877-1.088-3.766-1.088-5.781v-65.674c0-4.214 1.707-8.331 4.683-11.317s7.104-4.683 11.317-4.683h67.445l15.904-10.944v-155.062z" />
<glyph unicode="&#xe63f;" d="M418.166 375.499c-44.789 44.779-103.488 67.168-162.176 67.168-58.698 0-117.387-22.389-162.176-67.168-89.536-89.558-89.536-234.752 0-324.32 44.79-44.779 103.478-67.178 162.176-67.178 58.688 0 117.387 22.4 162.176 67.178 89.558 89.568 89.558 234.762 0 324.32zM395.541 73.803c-37.28-37.269-86.848-57.803-139.552-57.803s-102.272 20.534-139.542 57.803c-12.299 12.298-22.41 25.942-30.773 40.31 0.874 2.304 1.792 4.672 2.752 7.050 2.091 5.184 4.352 10.358 6.442 14.486 2.005 4.096 4.213 7.317 4.576 7.606 2.123 2.346 4.448 4.352 7.37 7.616 1.44 1.642 3.082 3.712 4.522 6.592 1.451 2.848 2.507 6.656 2.475 10.464 0.010 3.296-0.694 6.4-1.718 9.077-1.558 4.053-3.68 7.339-6.219 10.731-2.57 3.37-5.642 6.858-9.462 10.848-10.058 10.474-15.178 16.651-18.005 21.632-1.451 2.528-2.496 4.939-3.552 8.16-1.046 3.221-2.026 7.274-3.147 12.587-1.355 6.432-2.326 16.661-2.826 26.678-0.118 2.326-0.213 4.64-0.288 6.912 9.302 28.65 25.12 55.606 47.819 78.325 14.368 14.368 30.581 26.176 48.075 35.339 2.4-0.224 4.714-0.49 7.392-0.501 1.718 0 3.499 0.042 5.355 0.138 18.582 0.928 23.040 1.152 26.016 1.258 2.954 0.118 5.28 0.118 19.243 0.587 7.68 0.256 13.91 0.96 19.456 2.272 8.256 1.824 15.254 5.877 19.68 9.92 3.861 3.456 5.995 5.952 8.394 8.106 26.411-1.856 51.766-8.853 74.933-20.597-12.043-0.298-32.832-3.040-38.731-17.803-2.72-6.805 0.363-21.344 6.166-27.808s14.187-4.693 14.187-4.693c8.202 2.858 17.226-1.344 20.245-9.547 3.062-8.277-1.173-17.493-9.472-20.554-1.152-0.394-6.57-2.368-14.752-2.4-4.95 0-10.986 0.779-17.301 3.434-6.315 2.624-12.736 7.221-17.984 13.856l-0.022 0.022c-6.048 7.659-9.44 37.6-20.502 37.909-11.050 0.298-17.109-8.416-22.144-17.334s9.002-12.064 9.002-24.853-30.23-21.333-15.392-34.56c12.608-11.243 61.088-24.982 70.176-23.37 12 2.112 21.418 0.832 27.094-5.899 5.696-6.762 2.528-15.232-1.738-18.549-0.651-0.501-5.514-4.619-13.568-8.822-8.043-4.16-19.158-3.989-29.238 2.23-4.95 3.030-8.544 4.886-11.424 6.144-2.901 1.258-5.142 1.994-7.957 2.762-5.536 1.525-13.781 3.094-26.613 7.915-8.587 3.221-36.363 25.451-53.995 9.93-17.632-15.52-25.035-37.002-25.109-49.365 0-5.11 0.757-10.517 2.698-15.861 2.869-8.022 8.587-15.648 16.544-21.142 7.958-5.558 17.845-9.216 29.77-11.253 16.331-2.688 27.808-6.112 32.896-9.397 2.592-1.632 3.584-2.827 4.245-3.957 0.619-1.142 1.184-2.688 1.216-6.048 0.022-3.776-0.95-9.654-3.51-17.472-4.853-15.062-7.84-28.010-7.904-39.947 0.011-4.352 0.416-8.63 1.558-12.875 1.632-6.315 5.365-12.938 11.424-17.365 6.027-4.48 13.323-6.154 20.117-6.112 4.726 0 9.44 0.714 14.336 1.942 17.728 4.469 32.736 13.28 44.448 22.454 5.856 4.618 10.89 9.334 15.040 13.846 4.171 4.544 7.413 8.736 9.909 12.971 3.584 6.166 6.304 11.606 9.344 16.544 3.050 4.971 6.368 9.558 11.37 14.582 1.664 1.75 5.334 4.149 9.76 7.317 15.435 12.171-2.346 22.731-8.714 25.92-21.344 10.762-35.978 25.6-36.672 26.229-6.25 6.25-6.25 16.373 0 22.624 6.24 6.24 16.341 6.25 22.603 0.022l0.064-0.064 0.341-0.32 1.536-1.43c1.387-1.259 3.456-3.072 6.058-5.152 5.184-4.171 12.512-9.354 20.384-13.28 5.738-2.88 26.699-12.064 26.582 0.139-0.235 25.824 12.128 16.598 15.819 14.666 10.411-5.418 12.96-16.245 13.173-24.747-6.442-39.253-24.608-76.885-54.784-107.072z" />
<glyph unicode="&#xe640;" d="M418.166 51.179c-89.579-89.568-234.784-89.568-324.352 0-89.536 89.568-89.536 234.762 0 324.32 89.568 89.558 234.774 89.558 324.352 0 89.558-89.558 89.558-234.752 0-324.32zM290.666 79.947v156.96c0 19.147-15.52 34.667-34.666 34.667s-34.666-15.52-34.666-34.667v-156.96c0-19.147 15.52-34.666 34.666-34.666s34.666 15.52 34.666 34.666zM256 306.72c19.147 0 34.666 15.52 34.666 34.667s-15.52 34.666-34.666 34.666c-19.157 0-34.666-15.52-34.666-34.666s15.51-34.667 34.666-34.667z" />
<glyph unicode="&#xe641;" d="M449.781 249.237l-171.157 171.146c-12.438 12.459-32.81 12.459-45.248 0.011l-171.147-171.157c-24.896-24.886-16.459-45.248 18.742-45.248h6.005v-207.050h106.666v132.374c0 4.214 1.707 8.331 4.683 11.317s7.094 4.683 11.317 4.683h92.704c4.214 0 8.33-1.707 11.317-4.683s4.683-7.104 4.683-11.317v-132.374h106.666v207.050h6.005c35.211 0 43.648 20.363 18.762 45.248z" />
<glyph unicode="&#xe642;" d="M250.538 415.232c69.877 0 138.582-32.171 138.582-109.109 0-70.976-81.302-98.251-98.762-123.872-13.046-19.125-8.694-45.856-44.714-45.856-23.466 0-34.944 19.104-34.944 36.565 0 64.939 95.541 79.648 95.541 133.163 0 29.44-19.702 46.891-52.384 46.891-69.834 0-42.571-72.022-95.541-72.022-19.050 0-35.434 11.456-35.434 33.291 0 53.493 61.141 100.949 127.658 100.949zM247.851 100.917c24.534 0 44.746-20.171 44.746-44.726s-20.224-44.747-44.746-44.747c-24.576 0-44.79 20.192-44.79 44.746s20.224 44.726 44.79 44.726z" />
<glyph unicode="&#xe643;" d="M78.966 40.757c-43.819 0-57.334 50.070-57.334 131.029 0 80.928 37.109 214.123 112.341 214.123 75.232 0 29.312-24.362 122.016-24.362 92.714 0 46.805 24.362 122.026 24.362 75.243 0 112.341-133.194 112.341-214.123 0-80.96-13.472-131.029-57.334-131.029-43.84 0-58.986 131.029-177.046 131.029-118.016 0-133.162-131.029-177.013-131.029zM125.12 309.333c-29.462 0-53.334-23.872-53.334-53.334s23.872-53.334 53.334-53.334 53.334 23.872 53.334 53.334-23.872 53.334-53.334 53.334zM372.651 334.165c-14.731 0-26.666-11.936-26.666-26.667s11.936-26.666 26.666-26.666 26.666 11.936 26.666 26.666-11.947 26.667-26.666 26.667zM321.13 282.667c-14.731 0-26.666-11.936-26.666-26.667s11.936-26.666 26.666-26.666 26.666 11.936 26.666 26.666-11.936 26.667-26.666 26.667zM372.651 231.168c-14.731 0-26.666-11.936-26.666-26.667s11.936-26.666 26.666-26.666 26.666 11.936 26.666 26.666-11.947 26.667-26.666 26.667zM424.149 282.667c-14.731 0-26.666-11.936-26.666-26.667s11.936-26.666 26.666-26.666 26.666 11.936 26.666 26.666-11.936 26.667-26.666 26.667z" />
<glyph unicode="&#xe644;" d="M32 304v74.688c0 17.589 14.389 31.978 31.968 31.978h160.064c17.578 0 31.968-14.389 31.968-31.978v-0.022h192.021c17.589 0 31.978-14.389 31.978-31.968v-42.699h-448zM480.022 272h-448.043c-17.59 0-31.979-14.389-31.979-31.978l32-192.043c0-17.6 14.389-31.978 31.968-31.978h384.053c17.589 0 31.978 14.378 31.978 31.978l32 192.043c0 17.59-14.389 31.978-31.978 31.978zM80 186.667c-8.843 0-16 7.168-16 16s7.157 16 16 16h352c8.832 0 16-7.168 16-16 0-8.842-7.168-16-16-16h-352z" />
<glyph unicode="&#xe645;" d="M480 346.699v-298.72c0-17.589-14.389-31.978-31.978-31.978h-384.043c-17.59 0-31.978 14.389-31.978 31.978v330.72c0 17.578 14.389 31.968 31.978 31.968h160.054c17.578 0 31.968-14.389 31.968-31.978v-0.022h192.022c17.589 0 31.978-14.389 31.978-31.968zM80 293.333h352c8.832 0 16 7.157 16 16s-7.168 16-16 16h-352c-8.843 0-16-7.158-16-16s7.157-16 16-16z" />
<glyph unicode="&#xe646;" d="M374.646 10.496l-118.25 75.317-117.92-75.829c-14.88-9.558-23.317-3.435-18.88 13.664l35.21 135.52-108.683 88.523c-13.706 11.147-10.496 21.066 7.126 22.144l140.022 8.459 50.731 130.538c6.4 16.48 16.832 16.501 23.317 0.064l51.317-130.336 140.085-7.808c17.642-0.981 20.875-10.88 7.232-22.102l-108.31-89.024 35.829-135.37c4.512-17.088-3.914-23.253-18.827-13.76z" />
<glyph unicode="&#xe647;" d="M480.971 277.44h-257.365l246.038 43.381c16.885 3.008 28.149 19.029 25.216 35.894l-15.317 86.998c-3.008 16.853-19.050 28.075-35.947 25.163l-417.952-73.696c-16.854-3.008-25.632-16.822-25.642-35.904v-370.934c0.043-17.13 13.899-30.965 31.029-31.008h449.942c17.13 0.043 30.986 13.877 31.030 30.998v258.112c-0.043 17.12-13.899 30.955-31.029 30.998zM374.486 414.4l63.019 11.115-25.654-70.517-63.029-11.104 25.664 70.507zM79.232 362.336l63.030 11.115-25.664-70.518-63.029-11.104 25.664 70.506zM98.186 169.771l-37.514 65.003h64l37.525-65.003h-64.010zM226.293 388.267l63.029 11.115-25.664-70.507-63.029-11.114 25.664 70.507zM248.661 169.771l-37.525 65.003h64l37.526-65.003h-64zM397.995 169.771l-37.526 65.003h64l37.526-65.003h-64zM48 10.688c-8.843 0-16 7.168-16 16s7.157 16 16 16h416c8.832 0 16-7.168 16-16s-7.168-16-16-16h-416z" />
<glyph unicode="&#xe648;" d="M434.666 438.304v-449.942c-0.043-17.13-13.877-30.986-30.986-31.029h-295.349c-17.12 0.043-30.954 13.898-30.998 31.029v449.942c0.043 17.131 13.877 30.987 30.998 31.030h295.339c17.12-0.043 30.954-13.899 30.998-31.030zM402.666 78.901v354.219c0 2.336-1.856 4.203-4.224 4.214h-284.938c-2.293-0.010-4.15-1.877-4.171-4.256v-354.208c0.022-2.325 1.877-4.192 4.224-4.202h284.938c2.315 0.010 4.149 1.866 4.171 4.235zM256 42.667c-14.731 0-26.666-11.936-26.666-26.666s11.936-26.666 26.666-26.666 26.666 11.936 26.666 26.666-11.936 26.666-26.666 26.666zM256.010 328.736c-23.648 0-42.816-19.168-42.816-42.805 0-14.571 7.306-27.434 18.442-35.168-48.853-10.667-51.733-37.696-52.416-53.803-0.149-3.435 2.389-7.541 5.718-8.416 8.427-2.208 25.398-5.291 71.072-5.291 45.654 0 62.624 3.082 71.062 5.291 3.328 0.875 5.856 4.981 5.707 8.416-0.693 16.106-3.563 43.136-52.416 53.803 11.147 7.734 18.442 20.597 18.442 35.168 0.010 23.638-19.157 42.806-42.795 42.806zM330.816 285.941c0-6.827-0.938-13.536-2.72-19.957 23.062-14.858 35.349-37.482 36.661-67.659 0.789-18.57-11.904-36.075-29.568-40.726-11.274-2.944-30.442-6.336-79.168-6.336-48.746 0-67.925 3.382-79.2 6.346-17.642 4.63-30.358 22.134-29.558 40.726 1.291 30.166 13.578 52.8 36.661 67.659-1.781 6.421-2.709 13.12-2.709 19.947 0 41.248 33.558 74.805 74.816 74.805s74.784-33.568 74.784-74.805z" />
<glyph unicode="&#xe649;" d="M255.989 363.765c50.987 0 92.299-41.322 92.299-92.277 0-31.414-15.755-59.147-39.755-75.808 105.334-22.986 117.899-68.49 119.392-103.2 0.31-7.413-5.142-16.267-12.31-18.144-18.166-4.747-61.163-11.413-159.637-11.413-98.454 0-141.44 6.666-159.606 11.413-7.178 1.877-12.64 10.731-12.32 18.144 1.504 34.709 14.070 80.214 119.382 103.2-24.011 16.661-39.766 44.395-39.766 75.808 0.022 50.954 41.355 92.277 92.32 92.277zM255.989 417.099c-80.299 0-145.632-65.322-145.632-145.611 0-16.619 2.859-32.874 8.224-48.16-56.395-27.584-85.258-70.058-87.787-128.554-1.387-32.971 21.024-63.925 52.128-72.053 33.365-8.714 91.606-13.142 173.088-13.142 81.504 0 139.755 4.426 173.12 13.152 31.094 8.139 53.504 39.082 52.106 71.99-2.517 58.528-31.402 101.034-87.808 128.608 5.376 15.286 8.224 31.542 8.224 48.149-0.032 80.298-65.365 145.622-145.664 145.622z" />
<glyph unicode="&#xe64a;" d="M74.742 394.667l158.635-158.634c6.037-6.037 14.070-9.365 22.624-9.365 8.544 0 16.576 3.328 22.613 9.365l82.827 82.816-0.384 0.384 37.707 37.717 0.384-0.384 38.101 38.101h-362.507zM436.448 319.275l0.032-0.032-37.718-37.718-0.032 0.032-97.483-97.472c-12.49-12.502-28.864-18.752-45.248-18.752-16.374 0-32.757 6.25-45.248 18.741l-195.264 195.254c-2.998-4.864-4.822-10.528-4.822-16.64v-298.709c0-17.589 14.389-31.978 31.978-31.978h426.709c17.589 0 31.978 14.389 31.978 31.978v298.709c0 6.112-1.824 11.776-4.822 16.651l-60.064-60.064z" />
<glyph unicode="&#xe64b;" d="M311.894 368.981c6.038-6.037 14.080-9.365 22.603-9.365h66.538l-98.517 99.050v-67.062c0.022-8.534 3.36-16.587 9.376-22.624zM390.442 30.229l-6.57-6.538c-5.888-5.888-12.704-10.55-20.096-14.144-2.848-2.582-6.592-4.214-10.741-4.214h-0.053c-2.57-0.779-5.13-1.589-7.798-2.101l-46.219-11.574-1.152-0.214c-2.827-0.49-5.685-0.736-8.49-0.736-12.864 0-24.779 5.365-32.992 14.624h-169.941c-8.843 0-16 7.168-16 16s7.157 16 16 16h159.254c0.096 1.942 0.054 3.861 0.384 5.824l0.214 1.195 0.288 1.173 11.040 44.032h-171.179c-8.843 0-16 7.168-16 16s7.157 16 16 16h185.365c0.853 1.12 1.611 2.315 2.528 3.382l0.33 0.672 3.68 3.67 44.48 44.49h-236.384c-8.843 0-16 7.168-16 16s7.157 16 16 16h266.656c0.544 0 1.046-0.106 1.568-0.16l23.531 23.542c6.699 6.698 14.464 11.925 22.89 15.606v82.848h-66.538c-17.664 0-33.642 7.168-45.226 18.741-11.574 11.584-18.72 27.584-18.741 45.248v67.072h-200.138c-17.6 0-32-14.4-32-32v-426.667c0-17.6 14.4-32 32-32h298.656c17.6 0 32 14.4 32 32v40.789l-10.603-10.56zM86.389 290.005h266.656c8.832 0 16-7.157 16-16s-7.168-16-16-16h-266.656c-8.843 0-16 7.157-16 16s7.157 16 16 16zM454.507 139.584l6.613 6.624c16.661 16.651 16.651 43.648 0 60.331-8.331 8.331-19.264 12.502-30.176 12.502-10.923 0-21.846-4.171-30.176-12.502l-6.603-6.603 60.341-60.352zM431.882 116.96l-60.341 60.352-70.646-70.688c-6.454-6.442-10.358-14.454-11.786-22.816l-11.541-46.058c-1.514-8.81 3.637-15.040 11.765-15.040 0.971 0 1.974 0.106 3.008 0.267l46.058 11.541c8.373 1.462 16.394 5.334 22.858 11.786l6.603 6.582-0.022 0.022 64.043 64.053z" />
<glyph unicode="&#xe64c;" d="M418.154 51.168c-89.558-89.558-234.762-89.558-324.31 0-89.558 89.558-89.558 234.774 0 324.331 89.558 89.557 234.762 89.557 324.32 0 89.546-89.558 89.546-234.774-0.010-324.331zM183.413 350.059c0-1.718 0.523-3.648 1.674-5.622l61.536-99.488c5.131-7.296 13.557-7.296 18.698 0l61.514 99.467c1.152 1.994 1.696 3.904 1.685 5.642 0 4.843-4.288 8.267-11.498 8.278h-37.12l-0.022 31.776c0 13.184-10.678 23.872-23.882 23.882-13.195-0.010-23.893-10.698-23.893-23.882l0.011-31.776h-37.216c-7.19-0.010-11.488-3.424-11.488-8.278zM173.834 82.144c1.482 0.864 2.891 2.283 4.032 4.267l55.381 103.019c3.755 8.096-0.458 15.392-9.355 16.202l-116.885 3.541c-2.304 0-4.224-0.48-5.728-1.365-4.192-2.432-5.024-7.84-1.418-14.091l18.57-32.16-27.51-15.894c-11.424-6.592-15.338-21.184-8.746-32.63 6.614-11.424 21.216-15.339 32.629-8.747l27.52 15.894 18.602-32.224c3.606-6.229 8.704-8.224 12.906-5.813zM410.635 207.808c-1.493 0.864-3.424 1.365-5.707 1.365l-116.918-3.552c-8.885-0.8-13.099-8.106-9.354-16.214l55.382-102.998c1.152-2.005 2.538-3.424 4.064-4.267 4.192-2.421 9.291-0.438 12.896 5.813l18.56 32.171 27.52-15.882c11.424-6.592 26.016-2.688 32.63 8.736 6.582 11.435 2.688 26.038-8.736 32.64l-27.52 15.882 18.613 32.224c3.584 6.219 2.774 11.648-1.43 14.080z" />
<glyph unicode="&#xe64d;" d="M245.547 168.864c5.75-8.149 15.146-8.149 20.874 0l79.36 132.374c4.885 8.544-0.053 15.52-10.944 15.52h-52.202v96.672c0 14.731-11.936 26.666-26.666 26.666s-26.666-11.936-26.666-26.666v-96.662h-52.128c-10.891 0-15.84-6.976-10.965-15.52l79.338-132.384zM421.354 215.915h-47.019c-14.731 0-26.666-11.936-26.666-26.678 0-14.731 11.936-26.666 26.666-26.666h20.352c17.579 0 31.978-14.378 31.978-31.978v-58.709c0-17.579-14.4-31.978-31.978-31.978h-277.376c-17.578 0-31.978 14.4-31.978 31.978v58.709c0 17.6 14.4 31.978 31.978 31.978h20.352c14.731 0 26.667 11.936 26.667 26.666 0 14.741-11.936 26.678-26.666 26.678h-47.019c-32.331 0-58.645-26.325-58.645-58.656v-112.043c0-32.33 26.314-58.646 58.645-58.646h330.709c32.33 0 58.646 26.315 58.646 58.645v112.043c0 32.331-26.315 58.656-58.645 58.656z" />
<glyph unicode="&#xe64e;" d="M370.837 327.616h66.496v-168.149h-362.666v267.2c0 17.6 14.4 32 32 32h200.149v-67.061c0.022-17.664 7.168-33.664 18.752-45.248 11.574-11.573 27.563-18.741 45.226-18.741h0.043zM348.192 368.981c6.038-6.037 14.070-9.365 22.603-9.365h66.538l-98.517 99.050v-67.062c0.010-8.534 3.339-16.587 9.376-22.624zM74.666 127.467h362.666v-127.466c0-17.6-14.4-32-32-32h-298.666c-17.6 0-32 14.4-32 32v127.466zM120 16.576c0-9.344 4.864-12.277 12.278-12.277h25.206c28.011 0 44.256 16.885 44.256 46.048 0 36.086-20.982 46.058-43.882 46.058h-25.578c-7.424 0-12.278-2.944-12.278-12.288v-67.541zM140.982 79.509h17.525c15.35 0 22.262-10.998 22.262-29.163 0-14.197-5.376-29.163-22.133-29.163h-17.654v58.325zM213.056 51.499c0-27.894 13.558-49.387 46.56-49.387 31.478 0 46.57 23.413 46.57 49.387 0 26.986-16.373 47.072-46.57 47.072-30.186 0-46.56-20.086-46.56-47.072zM234.037 51.499c0 17.654 8.448 30.187 25.578 30.187 17.152 0 25.589-12.534 25.589-30.187s-6.517-32.502-25.589-32.502c-19.69 0-25.578 14.848-25.578 32.502zM316.106 50.347c0-31.733 17.002-48.224 45.792-48.224 20.331 0 36.459 13.173 36.459 26.474 0 5.12-5.11 8.064-10.229 8.064-10.101 0-9.728-17.654-26.23-17.654-18.166 0-24.81 14.582-24.81 31.339 0 19.957 10.88 31.339 24.043 31.339 19.19 0 15.606-16.63 27.776-16.63 6.272 0 9.462 3.574 9.462 9.462 0 8.96-13.163 24.053-37.226 24.053-29.685 0-45.034-22.262-45.034-48.224z" />
<glyph unicode="&#xe64f;" d="M461.707 400.491c-2.976 2.976-7.104 4.683-11.317 4.683h-102.752c-4.214 0-8.33-1.707-11.317-4.683s-4.683-7.104-4.683-11.317v-17.44h-50.858l-40.352 30.25c-2.794 2.091-6.101 3.2-9.589 3.2h-129.674c-3.766 0-7.445-1.344-10.336-3.776l-39.552-33.44c-3.574-3.029-5.664-7.531-5.664-12.224v-170.923c0-5.291 2.571-10.187 6.934-13.184l26.933-18.507c2.698-1.856 5.792-2.816 9.067-2.816h56.416v-46.688l-9.035-23.339c-0.714-1.877-1.077-3.755-1.077-5.771v-37.034c0-4.214 1.707-8.331 4.683-11.317s7.104-4.683 11.317-4.683h50.506c6.379 0 12.128 3.776 14.666 9.6 0.011 0.022 2.304 5.269 6.112 13.92 11.413 25.877 36.554 82.091 53.258 114.88 4.298 8.448 10.582 14.986 18.134 20.31 11.274 7.957 25.397 12.683 36.608 15.115 0.544 0.118 0.971 0.182 1.504 0.277v-12.139c0-4.214 1.707-8.33 4.683-11.317s7.104-4.683 11.317-4.683h102.752c4.214 0 8.33 1.707 11.317 4.683s4.683 7.104 4.683 11.317v205.739c0.010 4.213-1.707 8.33-4.683 11.306zM308.32 222.528c-10.592-3.435-22.208-8.459-33.152-16.139-10.923-7.648-21.216-18.112-28.278-31.978-11.606-22.805-26.582-55.296-38.742-82.24-7.232-16.022-13.376-29.93-17.226-38.678h-24.064v18.038l9.024 23.339c0.726 1.877 1.088 3.755 1.088 5.771v65.674c0 4.214-1.707 8.331-4.683 11.317s-7.104 4.683-11.317 4.683h-67.456l-15.904 10.923v155.083l29.419 24.864h118.475l40.363-30.24c2.795-2.091 6.101-3.2 9.589-3.2h56.192v-111.584c-6.55-1.099-14.56-2.816-23.328-5.632z" />
<glyph unicode="&#xe650;" d="M512 373.717v-292.118c-0.043-17.12-13.899-30.954-31.029-30.998h-95.776v-12.106c-0.022-9.142-7.392-16.522-16.522-16.544h-238.667c-9.12 0.022-16.501 7.392-16.523 16.544v12.106h-82.454c-17.131 0.043-30.986 13.877-31.029 30.998v292.118c0.043 17.109 13.899 30.944 31.029 30.986h449.942c17.13-0.032 30.986-13.866 31.029-30.986zM446.176 352.043h-380.384c-2.336 0-4.203-1.866-4.213-4.224v-240.374c0.011-2.293 1.877-4.149 4.256-4.171h380.373c2.325 0.022 4.192 1.877 4.202 4.224v240.374c0 2.304-1.856 4.149-4.235 4.171zM158.912 159.829c0-11.392 7.456-19.125 19.125-19.125 11.626 0 19.094 7.733 19.094 19.125v119.594h36.16c10.934 0 19.786 5.568 19.786 16.075 0 10.486-8.853 16.074-19.786 16.074h-110.517c-10.944 0-19.808-5.578-19.808-16.074s8.864-16.075 19.808-16.075h36.15v-119.594zM406.688 286.411c1.654 4.416 2.358 8.16 2.358 11.2 0 12.8-9.803 17.014-19.349 17.014-8.853 0-14.442-5.365-17.942-16.768l-35.914-114.24h-0.459l-34.496 114.24c-3.478 11.403-9.088 16.768-19.339 16.768-9.558 0-19.328-4.214-19.328-17.014 0-3.040 0.672-6.784 2.325-11.2l47.094-132.406c3.947-10.954 11.402-13.291 23.307-13.291s19.339 2.336 23.307 13.291l48.438 132.406z" />
<glyph unicode="&#xe651;" d="M316.33 213.333l63.776 63.776c16.661 16.662 16.661 43.68 0 60.341s-43.68 16.662-60.331 0l-63.776-63.776-63.766 63.765c-16.661 16.661-43.68 16.661-60.341 0-16.662-16.661-16.662-43.68 0-60.341l63.766-63.766-63.776-63.776c-16.662-16.661-16.662-43.68 0-60.33 16.661-16.661 43.68-16.661 60.341 0l63.776 63.776 63.776-63.776c16.661-16.661 43.68-16.661 60.331 0 16.661 16.661 16.661 43.68 0 60.331l-63.776 63.776z" />
<glyph unicode="&#xe652;" d="M469.334 394.667h-426.666c-17.6 0-32-14.4-32-32v-298.666c0-17.6 14.4-32 32-32h426.666c17.6 0 32 14.4 32 32v298.666c0 17.6-14.4 32-32 32zM469.334 189.184l-62.144 62.144c-3.115 3.104-7.125 4.63-11.317 4.65-4.192-0.011-8.202-1.547-11.317-4.65l-153.899-153.899c-6.25-6.25-16.374-6.25-22.624 0l-60.63 60.63c-3.104 3.094-7.114 4.63-11.317 4.651-4.192-0.022-8.213-1.558-11.317-4.651l-82.102-82.112v45.248l59.488 59.488c9.334 9.344 21.728 14.026 33.942 14.016 12.214 0.010 24.597-4.672 33.941-14.016l49.322-49.312 78.155 78.144c-19.648 15.766-32.256 39.936-32.267 67.094 0 47.574 38.55 86.070 86.070 86.048 47.478 0.022 86.016-38.474 86.026-86.058 0-3.253-0.224-6.442-0.565-9.6l32.555-32.554v-45.258z" />
<glyph unicode="&#xe653;" d="M437.334-0c0-17.6-14.4-32-32-32h-298.666c-17.6 0-32 14.4-32 32v426.666c0 17.6 14.4 32 32 32h200.149v-67.061c0.022-17.664 7.168-33.664 18.752-45.248 11.574-11.574 27.563-18.742 45.226-18.742h66.538v-327.616zM348.192 368.981c6.038-6.037 14.070-9.365 22.603-9.365h66.538l-98.517 99.050v-67.062c0.010-8.534 3.339-16.587 9.376-22.624z" />
<glyph unicode="&#xe654;" d="M480.971 390.389h-449.942c-17.131-0.042-30.986-13.877-31.029-30.997v-292.118c0.043-17.12 13.899-30.954 31.029-30.998h449.942c17.13 0.043 30.986 13.877 31.029 30.998v292.118c-0.043 17.12-13.899 30.954-31.029 30.997zM112.522 301.216c39.67 0 61.397-27.498 61.397-43.829 0-10.71-5.269-17.227-15.606-17.227-20.064 0-14.144 30.294-45.792 30.294-21.749 0-39.691-20.747-39.691-57.11 0-30.539 10.976-57.12 40.938-57.12 27.232 0 26.602 32.171 43.274 32.171 8.438 0 16.875-5.334 16.875-14.688 0-24.224-26.582-48.245-60.15-48.245-47.478 0-75.541 30.058-75.541 87.894 0 47.307 25.312 87.862 74.293 87.862zM200.587 274.891c0 17.024 8.022 22.4 20.267 22.4h52.981c29.12 0 52.544-15.872 52.544-53.162 0-30.518-19.211-53.163-52.747-53.163h-38.422v-45.462c0-11.392-6.774-19.104-17.312-19.104s-17.312 7.712-17.312 19.104v129.387zM235.21 220.341h32.288c13.942 0 24.267 9.312 24.267 23.776 0 16.789-10.752 23.776-27.851 23.776h-28.704v-47.552zM353.046 274.891c0 17.024 8.043 22.4 20.288 22.4h81.248c10.123 0 17.504-3.274 17.504-15.392s-7.37-15.392-17.504-15.392h-66.912v-36.374h58.666c9.088 0 16.245-2.794 16.245-14.667 0-11.894-7.168-14.688-16.245-14.688h-58.666v-40.565h68.608c10.123 0 17.504-3.274 17.504-15.37 0-12.149-7.37-15.392-17.504-15.392h-82.944c-12.245 0-20.288 5.354-20.288 22.378v123.062z" />
<glyph unicode="&#xe655;" d="M374.858 88.544v0l-0.245-0.16c-1.44-0.971-9.13-5.93-21.152-10.486-12.032-4.587-28.298-8.768-47.274-8.768-10.346 0-21.526 1.226-33.483 4.341v0c-13.226 3.478-24.171 10.038-33.974 19.36-13.408 12.714-24.128 31.104-31.52 51.168h97.867c14.731 0 26.666 11.936 26.666 26.666s-11.936 26.666-26.666 26.666h-109.781c-0.512 5.642-0.821 11.062-0.81 16.011-0.022 4.95 0.288 10.368 0.8 15.989h149.44c14.731 0 26.666 11.936 26.666 26.666s-11.936 26.667-26.666 26.667h-137.462c2.006 5.45 4.171 10.816 6.667 15.925 6.667 13.76 15.050 25.942 24.81 35.243 9.803 9.322 20.746 15.882 33.974 19.36v0c11.957 3.115 23.136 4.341 33.483 4.341 20.885 0.011 38.507-5.088 50.784-10.166 6.123-2.538 10.88-5.045 13.942-6.816 1.536-0.886 2.635-1.589 3.286-2.006l0.651-0.426 0.010 0.011c11.925-8.502 28.49-5.814 37.077 6.069 8.63 11.936 5.952 28.608-5.984 37.238-1.291 0.918-11.382 8.085-28.598 15.222-17.184 7.104-41.622 14.208-71.168 14.218-14.592 0-30.389-1.76-46.933-6.069v0c-22.709-5.899-42.016-17.707-57.355-32.416-23.072-22.144-37.814-50.304-47.254-78.4-1.258-3.776-2.186-7.552-3.254-11.328h-29.707c-14.731 0-26.666-11.936-26.666-26.667s11.936-26.666 26.666-26.666h20.16c-0.384-5.462-0.672-10.859-0.672-15.989 0.011-5.142 0.278-10.528 0.661-16.011h-20.15c-14.73 0-26.666-11.936-26.666-26.666s11.936-26.666 26.666-26.666h29.536c3.744-13.142 8.554-26.368 14.742-39.211 8.886-18.272 20.544-35.776 35.936-50.507 15.339-14.709 34.645-26.517 57.354-32.416v0c16.544-4.32 32.352-6.070 46.933-6.070 29.546 0.010 53.984 7.104 71.168 14.208 17.216 7.136 27.307 14.304 28.598 15.221 11.936 8.64 14.613 25.301 5.984 37.238-8.608 11.882-25.163 14.57-37.088 6.080z" />
<glyph unicode="&#xe656;" d="M87.147 336.416c0 17.984 10.87 27.35 27.35 27.35s27.36-9.376 27.36-27.35v-145.738l60.694 67.445c5.621 5.995 12.746 10.475 20.992 10.475 12.374 0 25.856-10.858 25.856-24.726 0-9.728-3.37-12.726-8.245-17.984l-40.469-42.347 56.95-76.438c1.877-2.624 5.622-8.618 5.622-17.6 0-13.877-11.243-26.613-25.856-26.613-13.494 0-20.608 6.752-24.726 12.736l-51.712 73.077-19.104-16.864v-41.579c0-17.995-10.88-27.36-27.36-27.36s-27.349 9.365-27.349 27.36v246.155zM291.328 264.469c0 16.49 10.87 25.472 24.726 25.472 13.866 0 24.736-8.981 24.736-25.472v-20.982h0.747c6.368 22.848 26.731 46.443 53.334 46.443 17.238 0 29.984-11.232 29.984-26.592 0-20.224-13.493-27.339-26.976-27.339h-9.75c-22.101 0-42.101-36.694-42.101-82.037v-63.702c0-14.624-5.995-27.36-27.349-27.36-21.355 0-27.349 12.736-27.349 27.36v174.208z" />
<glyph unicode="&#xe657;" d="M418.166 375.488c89.558-89.558 89.558-234.752 0-324.32s-234.762-89.558-324.33 0c-89.558 89.568-89.558 234.774-0.010 324.331 89.579 89.557 234.774 89.557 324.341-0.011zM196.672 359.061l-26.315-26.314-22.464 22.464c-9.322 9.322-24.438 9.322-33.781 0-9.334-9.333-9.334-24.448-0.010-33.781l22.464-22.475-26.251-26.25c-5.099-5.099-5.707-10.549-2.282-13.984 1.216-1.226 2.954-2.197 5.174-2.794l113.835-26.838c8.8-1.536 14.752 4.416 13.226 13.206l-26.848 113.856c-0.576 2.208-1.558 3.957-2.762 5.162-3.446 3.456-8.896 2.838-13.984-2.25zM301.354 361.333c-1.195-1.206-2.187-2.955-2.774-5.163l-26.858-113.856c-1.526-8.79 4.426-14.742 13.226-13.206l113.856 26.838c2.208 0.598 3.957 1.558 5.152 2.795 3.435 3.424 2.837 8.885-2.283 13.984l-26.25 26.25 22.464 22.474c9.312 9.334 9.312 24.448 0 33.782-9.344 9.322-24.469 9.322-33.792 0l-22.454-22.464-26.325 26.315c-5.077 5.067-10.517 5.685-13.962 2.251zM315.328 67.584l26.325 26.336 22.454-22.474c9.322-9.312 24.448-9.312 33.792 0 9.312 9.334 9.312 24.459 0 33.781l-22.464 22.464 26.25 26.25c5.11 5.11 5.717 10.57 2.283 13.984-1.195 1.238-2.944 2.208-5.152 2.816l-113.856 26.837c-8.8 1.526-14.752-4.426-13.226-13.226l26.858-113.846c0.587-2.208 1.568-3.968 2.774-5.152 3.435-3.466 8.875-2.858 13.962 2.229zM210.656 65.333c1.206 1.184 2.186 2.944 2.762 5.152l26.848 113.846c1.525 8.8-4.427 14.752-13.226 13.226l-113.835-26.837c-2.219-0.608-3.957-1.568-5.174-2.816-3.424-3.402-2.816-8.864 2.282-13.984l26.25-26.25-22.464-22.464c-9.323-9.322-9.323-24.448 0.010-33.781 9.334-9.312 24.448-9.312 33.782 0l22.464 22.474 26.315-26.336c5.088-5.067 10.538-5.675 13.984-2.229z" />
<glyph unicode="&#xe658;" d="M32 74.667h-0.021c-17.59 0-31.979 14.389-31.979 31.978v330.72c0 17.579 14.389 31.968 31.979 31.968h160.054c17.568 0 31.968-14.389 31.968-31.978v-0.022h192.022c17.589 0 31.978-14.389 31.978-31.968v-53.365h-136.587c-11.082 19.114-31.765 32-55.392 32h-160.042c-35.285 0-63.978-28.704-63.978-63.979v-245.354zM256.022 352h-160.042c-17.59 0-31.978-14.4-31.978-31.978v-330.71c0-17.6 14.389-31.978 31.978-31.978h384.043c17.589 0 31.979 14.378 31.979 31.978v298.71c0 17.589-14.389 31.978-31.978 31.978l-192.022 0.022c0 17.578-14.389 31.978-31.978 31.978zM112 234.667c-8.843 0-16 7.168-16 16s7.157 16 16 16h352c8.832 0 16-7.158 16-16s-7.168-16-16-16h-352z" />
<glyph unicode="&#xe659;" d="M369.526 379.648c6.038-6.038 14.070-9.365 22.603-9.365h66.538l-98.517 99.050v-67.061c0.010-8.534 3.339-16.587 9.376-22.624zM512 222.187v-51.125c0-12.49-4.789-24.928-13.43-34.912-8.576-9.995-19.957-16.522-32.149-18.442l-7.755-1.387v-105.654c0-17.6-14.4-32-32-32h-32.288c-13.365-9.483-29.462-16.341-47.2-19.466-6.998-1.237-14.091-1.866-21.11-1.866-25.408 0-48.086 7.936-64.906 21.334h-133.162c-17.6 0-32 14.4-32 32v76.522c-56.597 26.411-96 83.702-96 150.155 0.011 66.454 39.413 123.744 96 150.144v49.846c0 17.6 14.4 32 32 32h200.15v-67.062c0.022-17.664 7.168-33.664 18.752-45.248 11.574-11.573 27.563-18.741 45.226-18.741h66.538v-68.566c1.792 0.202 3.574 0.47 5.376 0.47 11.264 0 22.229-4 30.774-11.211 10.923-9.13 17.184-22.538 17.184-36.789zM464.043 238.187l-2.827-0.245-78.794-13.952c-7.659-1.354-13.216-7.978-13.216-15.776v-117.056c-9.099 3.84-19.541 5.974-30.613 5.974-5.056 0-10.24-0.448-15.488-1.365-37.717-6.646-64.139-35.563-59.019-64.587 4.394-24.938 30.709-41.846 61.984-41.846 5.088 0 10.283 0.448 15.552 1.376 32.587 5.75 56.683 28.128 59.349 52.789l0.224 6.624v88.534l60.010 10.613c4.672 0.672 9.43 3.466 13.067 7.712 3.648 4.202 5.728 9.334 5.728 14.080v51.125c0 4.747-2.080 9.206-5.717 12.246-2.912 2.453-6.517 3.755-10.24 3.755zM165.76 371.093c-73.867 0-133.75-59.883-133.76-133.76 0-73.878 59.894-133.76 133.781-133.76 73.877 0 133.75 59.872 133.75 133.75-0.010 73.888-59.894 133.77-133.77 133.77zM256.683 247.744l-132.374 79.36c-8.544 4.886-15.52-0.053-15.52-10.944v-157.664c0-10.89 6.976-15.829 15.52-10.954l132.374 79.328c8.139 5.75 8.139 15.147 0 20.875z" />
<glyph unicode="&#xe65a;" d="M371.382 286.005c0-39.275-19.69-73.931-49.696-94.763 131.648-28.736 139.35-101.611 141.226-144.992 0.394-9.269-6.432-20.331-15.392-22.688-22.709-5.952-68.438-14.262-191.51-14.262s-168.81 8.32-191.52 14.272c-8.981 2.358-15.797 13.418-15.403 22.688 1.877 43.37 9.59 116.245 141.238 144.992-29.994 20.832-49.674 55.488-49.674 94.762 0 63.712 51.648 115.35 115.36 115.35 63.712 0 115.37-51.648 115.37-115.36z" />
<glyph unicode="&#xe65b;" d="M227.179 388.149c-70.667 0-130.518-46.912-149.718-111.061-45.386-18.486-77.462-62.944-77.462-114.71 0-63.786 49.664-117.728 113.312-123.328 4.181-0.459 7.766-0.534 11.040-0.534h286.379c1.163 0 2.154 0.022 3.158 0.053 55.062 1.728 98.112 45.92 98.112 100.822 0 39.829-23.339 74.346-57.11 90.71-11.616 41.728-47.627 73.461-91.712 78.976-27.029 47.702-78.486 79.072-136 79.072zM227.179 334.816c50.027 0 91.722-35.434 100.832-82.442 6.56 2.805 13.877 4.224 21.483 4.224 30.933 0 56.032-24.821 56.032-55.552 0-5.088-0.704-9.984-2.026-14.709 2.4 0.373 4.8 0.544 7.243 0.544 26.474 0 47.936-21.226 47.936-47.478 0-25.877-20.747-46.837-46.709-47.52l-1.226-0.022h-229.792c-33.355 0-56.597 0-56.597 0-1.92 0-3.776 0.022-5.696 0.267-36.49 2.848-65.323 33.184-65.323 70.25 0 38.912 31.829 70.507 71.019 70.507 0 56.298 46.080 101.931 102.827 101.931z" />
<glyph unicode="&#xe65c;" d="M333.365 179.861v-100.906c0-26.454-21.526-47.99-47.978-47.99h-21.675c-8.822 0-15.989-7.158-15.989-16v-57.558l-75.754 69.354c-2.944 2.699-6.794 4.202-10.794 4.202h-113.195c-26.453 0-47.978 21.536-47.978 47.99v139.904c0 26.464 21.526 47.99 47.978 47.99h100.075c6.923-37.109 39.488-65.302 78.56-65.302h5.674v-77.899c0-6.336 3.755-12.075 9.558-14.635 2.070-0.906 4.267-1.354 6.442-1.354 3.925 0 7.776 1.45 10.794 4.202l74.283 68zM226.613 469.419c-26.453 0-47.978-21.526-47.978-47.99v-139.893c0-26.464 21.525-48 47.978-48h21.674c8.821 0 15.989-7.147 15.989-16v-57.558l75.755 69.355c2.944 2.688 6.795 4.192 10.795 4.192h113.195c26.454 0 47.978 21.536 47.978 48v139.904c0 26.464-21.526 47.99-47.978 47.99h-237.408z" />
<glyph unicode="&#xe65d;" d="M256 288c-25.088-0.011-47.648-10.123-64.106-26.55-16.438-16.458-26.549-39.029-26.56-64.118 0.011-25.088 10.123-47.648 26.56-64.118 16.459-16.426 39.029-26.538 64.106-26.55 25.088 0.010 47.648 10.123 64.118 26.55 16.426 16.469 26.538 39.029 26.55 64.118-0.010 25.088-10.123 47.659-26.55 64.118-16.459 16.427-39.029 26.538-64.118 26.55zM464.022 378.667l-96.022 0.022c0 17.579-14.4 31.978-31.978 31.978h-160.042c-17.578 0-31.978-14.389-31.978-31.978v-0.022h-96.022c-17.59 0-31.979-14.389-31.979-31.968v-298.72c0-17.589 14.39-31.978 31.979-31.978h416.043c17.589 0 31.978 14.389 31.978 31.978v298.72c0 17.578-14.389 31.968-31.978 31.968zM256 74.667c-67.755 0.010-122.656 54.912-122.666 122.666 0.011 67.766 54.912 122.656 122.666 122.666 67.755-0.010 122.656-54.901 122.666-122.666-0.010-67.755-54.912-122.656-122.666-122.666zM429.334 277.333c-19.157 0-34.666 15.53-34.666 34.666s15.51 34.667 34.666 34.667c19.147 0 34.666-15.52 34.666-34.667s-15.52-34.666-34.666-34.666z" />
</font>
</defs>
</svg>
